<?xml version="1.0" encoding="UTF-8" standalone="no"?>
<!DOCTYPE svg PUBLIC "-//W3C//DTD SVG 1.1//EN" "http://www.w3.org/Graphics/SVG/1.1/DTD/svg11.dtd">
<svg width="100%" height="100%" viewBox="0 0 72 73" version="1.1" xmlns="http://www.w3.org/2000/svg" xmlns:xlink="http://www.w3.org/1999/xlink" xml:space="preserve" xmlns:serif="http://www.serif.com/" style="fill-rule:evenodd;clip-rule:evenodd;stroke-linejoin:round;stroke-miterlimit:2;">
    <g transform="matrix(1,0,0,1,-15710,-6897)">
        <g transform="matrix(1,0,0,1,12004.5,6770.4)">
            <g id="icon-check-box" transform="matrix(1,0,0,1,3696.35,198.225)">
                <path d="M22.217,0.391L68.457,0.391C72.624,0.391 75.741,-0.635 77.808,-2.686C79.875,-4.736 80.908,-7.813 80.908,-11.914L80.908,-58.496C80.908,-62.598 79.875,-65.674 77.808,-67.725C75.741,-69.775 72.624,-70.801 68.457,-70.801L22.217,-70.801C18.083,-70.801 14.974,-69.775 12.891,-67.725C10.807,-65.674 9.766,-62.598 9.766,-58.496L9.766,-11.914C9.766,-7.813 10.807,-4.736 12.891,-2.686C14.974,-0.635 18.083,0.391 22.217,0.391ZM22.315,-6.689C20.557,-6.689 19.198,-7.153 18.237,-8.081C17.277,-9.009 16.797,-10.4 16.797,-12.256L16.797,-58.154C16.797,-59.977 17.277,-61.361 18.237,-62.305C19.198,-63.249 20.557,-63.721 22.315,-63.721L68.359,-63.721C70.117,-63.721 71.476,-63.249 72.437,-62.305C73.397,-61.361 73.877,-59.977 73.877,-58.154L73.877,-12.256C73.877,-10.4 73.397,-9.009 72.437,-8.081C71.476,-7.153 70.117,-6.689 68.359,-6.689L22.315,-6.689Z" style="fill-rule:nonzero;"/>
                <path d="M41.162,-17.09C42.627,-17.09 43.799,-17.773 44.678,-19.141L61.475,-45.703C61.735,-46.126 61.979,-46.574 62.207,-47.046C62.435,-47.518 62.549,-48.014 62.549,-48.535C62.549,-49.512 62.183,-50.285 61.45,-50.855C60.718,-51.424 59.896,-51.709 58.984,-51.709C57.78,-51.709 56.787,-51.058 56.006,-49.756L40.967,-25.44L34.228,-34.522C33.708,-35.205 33.187,-35.669 32.666,-35.913C32.145,-36.157 31.592,-36.279 31.006,-36.279C30.062,-36.279 29.264,-35.938 28.613,-35.254C27.962,-34.57 27.637,-33.756 27.637,-32.813C27.637,-31.869 27.962,-30.973 28.613,-30.127L37.402,-19.141C37.956,-18.392 38.533,-17.863 39.136,-17.554C39.738,-17.244 40.413,-17.09 41.162,-17.09Z" style="fill-rule:nonzero;"/>
            </g>
        </g>
    </g>
</svg>
