<svg viewBox="0 0 48 63" xmlns="http://www.w3.org/2000/svg" xml:space="preserve" style="fill-rule:evenodd;clip-rule:evenodd;stroke-linejoin:round;stroke-miterlimit:2"><path d="M45.606-7.813c-.033.782.309 1.278 1.025 1.49.716.211 1.351.073 1.904-.415l5.713-5.762 6.348 15.771c.162.391.431.668.805.831.375.162.741.179 1.099.048l4.102-1.709c.39-.162.642-.431.756-.805.114-.375.074-.757-.122-1.148l-6.738-15.527 8.008-.488c.781-.033 1.318-.35 1.611-.953.293-.602.163-1.212-.39-1.831L48.828-39.356c-.553-.553-1.131-.707-1.733-.463-.602.244-.904.74-.904 1.489l-.585 30.517Z" style="fill-rule:nonzero" transform="translate(-18.934 59.052) scale(.91051)"/><path d="M2377.74 4322.67c0-.91-.76-1.65-1.69-1.65-.94 0-1.7.74-1.7 1.65v5.08c0 .91.76 1.65 1.7 1.65.93 0 1.69-.74 1.69-1.65v-5.08Z" style="fill-opacity:.4" transform="matrix(1.43013 0 0 1.46942 -3373.023 -6348.854)"/><path d="M2377.74 4322.67c0-.91-.76-1.65-1.69-1.65-.94 0-1.7.74-1.7 1.65v5.08c0 .91.76 1.65 1.7 1.65.93 0 1.69-.74 1.69-1.65v-5.08Z" style="fill-opacity:.4" transform="matrix(1.01125 -1.01125 1.03904 1.03904 -6884.807 -2079.508)"/><path d="M2377.74 4322.67c0-.91-.76-1.65-1.69-1.65-.94 0-1.7.74-1.7 1.65v5.08c0 .91.76 1.65 1.7 1.65.93 0 1.69-.74 1.69-1.65v-5.08Z" style="fill-opacity:.4" transform="matrix(0 -1.43013 1.46942 0 -6348.578 3420.756)"/><path d="M2377.74 4322.67c0-.91-.76-1.65-1.69-1.65-.94 0-1.7.74-1.7 1.65v5.08c0 .91.76 1.65 1.7 1.65.93 0 1.69-.74 1.69-1.65v-5.08Z" style="fill-opacity:.4" transform="matrix(-1.01125 -1.01125 1.03904 -1.03904 -2079.243 6931.533)"/><path d="M2377.74 4322.67c0-.91-.76-1.65-1.69-1.65-.94 0-1.7.74-1.7 1.65v5.08c0 .91.76 1.65 1.7 1.65.93 0 1.69-.74 1.69-1.65v-5.08Z" style="fill-opacity:.4" transform="matrix(1.01125 1.01125 -1.03904 1.03904 2129.287 -6885.076)"/><path d="M2377.74 4322.67c0-.91-.76-1.65-1.69-1.65-.94 0-1.7.74-1.7 1.65v5.08c0 .91.76 1.65 1.7 1.65.93 0 1.69-.74 1.69-1.65v-5.08Z" style="fill-opacity:.4" transform="matrix(0 1.43013 -1.46942 0 6396.933 -3375.343)"/></svg>