<?xml version="1.0" encoding="UTF-8" standalone="no"?>
<!DOCTYPE svg PUBLIC "-//W3C//DTD SVG 1.1//EN" "http://www.w3.org/Graphics/SVG/1.1/DTD/svg11.dtd">
<svg width="100%" height="100%" viewBox="0 0 66 82" version="1.1" xmlns="http://www.w3.org/2000/svg" xmlns:xlink="http://www.w3.org/1999/xlink" xml:space="preserve" xmlns:serif="http://www.serif.com/" style="fill-rule:evenodd;clip-rule:evenodd;stroke-linejoin:round;stroke-miterlimit:2;">
    <g transform="matrix(1,0,0,1,-3896,-24)">
        <g transform="matrix(1,0,0,1,-0.831706,0)">
            <g id="icon-file" transform="matrix(1,0,0,0.996062,3887.07,100.115)">
                <path d="M27.49,-23.779C26.644,-23.779 25.944,-24.048 25.391,-24.585C24.837,-25.122 24.561,-25.781 24.561,-26.563C24.561,-27.376 24.837,-28.052 25.391,-28.589C25.944,-29.126 26.644,-29.395 27.49,-29.395L57.129,-29.395C57.975,-29.395 58.675,-29.126 59.228,-28.589C59.782,-28.052 60.059,-27.376 60.059,-26.563C60.059,-25.781 59.782,-25.122 59.228,-24.585C58.675,-24.048 57.975,-23.779 57.129,-23.779L27.49,-23.779ZM27.49,-9.082C26.644,-9.082 25.944,-9.351 25.391,-9.888C24.837,-10.425 24.561,-11.1 24.561,-11.914C24.561,-12.695 24.837,-13.363 25.391,-13.916C25.944,-14.469 26.644,-14.746 27.49,-14.746L57.129,-14.746C57.975,-14.746 58.675,-14.469 59.228,-13.916C59.782,-13.363 60.059,-12.695 60.059,-11.914C60.059,-11.1 59.782,-10.425 59.228,-9.888C58.675,-9.351 57.975,-9.082 57.129,-9.082L27.49,-9.082ZM22.022,5.908L62.5,5.908C66.602,5.908 69.678,4.867 71.729,2.783C73.779,0.7 74.805,-2.409 74.805,-6.543L74.805,-40.43L46.875,-40.43C41.797,-40.43 39.258,-42.969 39.258,-48.047L39.258,-76.416L22.022,-76.416C17.92,-76.416 14.852,-75.374 12.817,-73.291C10.783,-71.208 9.766,-68.099 9.766,-63.965L9.766,-6.543C9.766,-2.376 10.783,0.741 12.817,2.808C14.852,4.875 17.92,5.908 22.022,5.908ZM46.875,-46.143L74.365,-46.143C74.235,-47.054 73.877,-47.957 73.291,-48.853C72.705,-49.748 71.891,-50.716 70.85,-51.758L50.586,-72.461C49.577,-73.503 48.617,-74.325 47.705,-74.927C46.794,-75.529 45.882,-75.911 44.971,-76.074L44.971,-48.047C44.971,-46.777 45.605,-46.143 46.875,-46.143Z" style="fill-rule:nonzero;"/>
            </g>
        </g>
    </g>
</svg>
