<?xml version="1.0" encoding="UTF-8" standalone="no"?>
<!DOCTYPE svg PUBLIC "-//W3C//DTD SVG 1.1//EN" "http://www.w3.org/Graphics/SVG/1.1/DTD/svg11.dtd">
<svg width="100%" height="100%" viewBox="0 0 16 16" version="1.1" xmlns="http://www.w3.org/2000/svg" xmlns:xlink="http://www.w3.org/1999/xlink" xml:space="preserve" xmlns:serif="http://www.serif.com/" style="fill-rule:evenodd;clip-rule:evenodd;stroke-linejoin:round;stroke-miterlimit:2;">
    <g transform="matrix(1,0,0,1,-3843,-44)">
        <g transform="matrix(1,0,0,1,-0.831706,0)">
            <g id="icon-note-circle-clicked" transform="matrix(1,0,0,1,-0.0850173,-0.438976)">
                <g transform="matrix(1,0,0,1,3843.92,44.439)">
                    <path d="M8,16C12.389,16 16,12.389 16,8C16,3.611 12.389,0 8,0C3.611,0 -0,3.611 0,8C0,12.389 3.611,16 8,16Z" style="fill:hsl(123,46.2%,33.53%);"/>
                </g>
                <g transform="matrix(1,0,0,1,3843.92,44.439)">
                    <path d="M8,16C12.389,16 16,12.389 16,8C16,3.611 12.389,0 8,0C3.611,0 -0,3.611 0,8C0,12.389 3.611,16 8,16ZM4,5C4,4.451 4.451,4 5,4L11,4C11.549,4 12,4.451 12,5L12,10C12,10.549 11.549,11 11,11L8.707,11L6.854,12.854C6.76,12.948 6.633,13.001 6.5,13.001C6.226,13.001 6,12.775 6,12.501L6,11L5,11C4.451,11 4,10.549 4,10L4,5Z"/>
                </g>
            </g>
        </g>
    </g>
</svg>
