<?xml version="1.0" encoding="UTF-8" standalone="no"?>
<!DOCTYPE svg PUBLIC "-//W3C//DTD SVG 1.1//EN" "http://www.w3.org/Graphics/SVG/1.1/DTD/svg11.dtd">
<svg width="100%" height="100%" viewBox="0 0 97 80" version="1.1" xmlns="http://www.w3.org/2000/svg" xmlns:xlink="http://www.w3.org/1999/xlink" xml:space="preserve" xmlns:serif="http://www.serif.com/" style="fill-rule:evenodd;clip-rule:evenodd;stroke-linejoin:round;stroke-miterlimit:2;">
    <g transform="matrix(1,0,0,1,-15877,-7081)">
        <g transform="matrix(1,0,0,1,12004.5,6770.4)">
            <g id="icon-copy-box" transform="matrix(1,0,0,1,3862.97,385.793)">
                <path d="M22.217,-14.209L32.129,-14.209L32.129,-21.24L22.315,-21.24C18.799,-21.24 16.797,-23.145 16.797,-26.856L16.797,-62.012C16.797,-65.723 18.799,-67.578 22.315,-67.578L73.731,-67.578C77.246,-67.578 79.248,-65.723 79.248,-62.012L79.248,-53.467L86.279,-53.467L86.279,-62.353C86.279,-70.557 82.129,-74.658 73.828,-74.658L22.217,-74.658C13.867,-74.658 9.766,-70.557 9.766,-62.353L9.766,-26.465C9.766,-18.262 13.867,-14.209 22.217,-14.209Z" style="fill-rule:nonzero;"/>
                <path d="M41.602,4.15L93.311,4.15C101.611,4.15 105.762,0.049 105.762,-8.105L105.762,-44.043C105.762,-52.246 101.611,-56.299 93.311,-56.299L41.602,-56.299C33.252,-56.299 29.15,-52.246 29.15,-44.043L29.15,-8.105C29.15,0.098 33.252,4.15 41.602,4.15ZM41.699,-2.881C38.184,-2.881 36.182,-4.785 36.182,-8.496L36.182,-43.652C36.182,-47.363 38.184,-49.268 41.699,-49.268L93.213,-49.268C96.729,-49.268 98.731,-47.363 98.731,-43.652L98.731,-8.496C98.731,-4.785 96.729,-2.881 93.213,-2.881L41.699,-2.881ZM49.512,-26.074C49.512,-23.926 51.025,-22.461 53.272,-22.461L63.818,-22.461L63.818,-11.865C63.818,-9.668 65.283,-8.154 67.432,-8.154C69.629,-8.154 71.143,-9.668 71.143,-11.865L71.143,-22.461L81.69,-22.461C83.887,-22.461 85.4,-23.926 85.4,-26.074C85.4,-28.272 83.887,-29.785 81.69,-29.785L71.143,-29.785L71.143,-40.332C71.143,-42.578 69.629,-44.092 67.432,-44.092C65.283,-44.092 63.818,-42.578 63.818,-40.332L63.818,-29.785L53.272,-29.785C51.025,-29.785 49.512,-28.272 49.512,-26.074Z" style="fill-rule:nonzero;"/>
            </g>
        </g>
    </g>
</svg>
