<?xml version="1.0" encoding="UTF-8" standalone="no"?>
<!DOCTYPE svg PUBLIC "-//W3C//DTD SVG 1.1//EN" "http://www.w3.org/Graphics/SVG/1.1/DTD/svg11.dtd">
<svg width="100%" height="100%" viewBox="0 0 16 16" version="1.1" xmlns="http://www.w3.org/2000/svg" xmlns:xlink="http://www.w3.org/1999/xlink" xml:space="preserve" xmlns:serif="http://www.serif.com/" style="fill-rule:evenodd;clip-rule:evenodd;stroke-linejoin:round;stroke-miterlimit:2;">
    <path d="M8,14.25L7.655,14.916L7.647,14.912L7.629,14.902C7.524,14.848 7.421,14.791 7.319,14.732C6.1,14.038 4.95,13.23 3.885,12.318C2.045,10.731 0,8.35 0,5.5C0,2.836 2.086,1 4.25,1C5.797,1 7.153,1.802 8,3.02C8.847,1.802 10.203,1 11.75,1C13.914,1 16,2.836 16,5.5C16,8.35 13.955,10.731 12.115,12.318C10.959,13.306 9.705,14.172 8.371,14.902L8.353,14.912L8.347,14.915L8.345,14.915L8,14.25ZM8,14.25L8.345,14.916C8.129,15.028 7.871,15.028 7.655,14.916L8,14.25Z"/>
</svg>
