<?xml version="1.0" encoding="UTF-8" standalone="no"?>
<!DOCTYPE svg PUBLIC "-//W3C//DTD SVG 1.1//EN" "http://www.w3.org/Graphics/SVG/1.1/DTD/svg11.dtd">
<svg width="100%" height="100%" viewBox="0 0 83 83" version="1.1" xmlns="http://www.w3.org/2000/svg" xmlns:xlink="http://www.w3.org/1999/xlink" xml:space="preserve" xmlns:serif="http://www.serif.com/" style="fill-rule:evenodd;clip-rule:evenodd;stroke-linejoin:round;stroke-miterlimit:2;">
    <g transform="matrix(1,0,0,1,-15610,-6887)">
        <g transform="matrix(1,0,0,1,12004.5,6770.4)">
            <g transform="matrix(1,0,0,1,3596.23,193)">
                <g id="icon-copy">
                    <g id="Regular-S">
                        <path d="M22.217,-12.744L32.031,-12.744L32.031,-19.775L22.315,-19.775C20.557,-19.775 19.198,-20.247 18.237,-21.191C17.277,-22.135 16.797,-23.535 16.797,-25.391L16.797,-63.379C16.797,-65.234 17.277,-66.634 18.237,-67.578C19.198,-68.522 20.557,-68.994 22.315,-68.994L60.498,-68.994C62.256,-68.994 63.615,-68.522 64.575,-67.578C65.535,-66.634 66.016,-65.234 66.016,-63.379L66.016,-54.395L73.047,-54.395L73.047,-63.77C73.047,-67.871 72.013,-70.939 69.946,-72.974C67.879,-75.008 64.762,-76.025 60.596,-76.025L22.217,-76.025C18.05,-76.025 14.933,-75.008 12.866,-72.974C10.799,-70.939 9.766,-67.871 9.766,-63.77L9.766,-25C9.766,-20.898 10.799,-17.83 12.866,-15.796C14.933,-13.761 18.05,-12.744 22.217,-12.744Z" style="fill-rule:nonzero;"/>
                        <path d="M40.772,5.615L79.15,5.615C83.317,5.615 86.434,4.598 88.501,2.563C90.568,0.529 91.602,-2.539 91.602,-6.641L91.602,-45.41C91.602,-49.512 90.568,-52.58 88.501,-54.614C86.434,-56.649 83.317,-57.666 79.15,-57.666L40.772,-57.666C36.605,-57.666 33.488,-56.649 31.421,-54.614C29.354,-52.58 28.32,-49.512 28.32,-45.41L28.32,-6.641C28.32,-2.539 29.354,0.529 31.421,2.563C33.488,4.598 36.605,5.615 40.772,5.615ZM40.869,-1.416C39.111,-1.416 37.752,-1.888 36.792,-2.832C35.832,-3.776 35.352,-5.176 35.352,-7.031L35.352,-45.02C35.352,-46.875 35.832,-48.275 36.792,-49.219C37.752,-50.163 39.111,-50.635 40.869,-50.635L79.053,-50.635C80.811,-50.635 82.17,-50.163 83.13,-49.219C84.09,-48.275 84.57,-46.875 84.57,-45.02L84.57,-7.031C84.57,-5.176 84.09,-3.776 83.13,-2.832C82.17,-1.888 80.811,-1.416 79.053,-1.416L40.869,-1.416ZM42.041,-26.025C42.041,-24.951 42.383,-24.08 43.066,-23.413C43.75,-22.746 44.661,-22.412 45.801,-22.412L56.348,-22.412L56.348,-11.816C56.348,-10.742 56.673,-9.855 57.324,-9.155C57.975,-8.455 58.854,-8.105 59.961,-8.105C61.035,-8.105 61.922,-8.455 62.622,-9.155C63.322,-9.855 63.672,-10.742 63.672,-11.816L63.672,-22.412L74.219,-22.412C75.326,-22.412 76.221,-22.746 76.904,-23.413C77.588,-24.08 77.93,-24.951 77.93,-26.025C77.93,-27.132 77.588,-28.027 76.904,-28.711C76.221,-29.395 75.326,-29.736 74.219,-29.736L63.672,-29.736L63.672,-40.283C63.672,-41.39 63.322,-42.293 62.622,-42.993C61.922,-43.693 61.035,-44.043 59.961,-44.043C58.854,-44.043 57.975,-43.693 57.324,-42.993C56.673,-42.293 56.348,-41.39 56.348,-40.283L56.348,-29.736L45.801,-29.736C44.661,-29.736 43.75,-29.395 43.066,-28.711C42.383,-28.027 42.041,-27.132 42.041,-26.025Z" style="fill-rule:nonzero;stroke:black;stroke-width:1px;"/>
                    </g>
                </g>
            </g>
        </g>
    </g>
</svg>
