<?xml version="1.0" encoding="UTF-8" standalone="no"?>
<!DOCTYPE svg PUBLIC "-//W3C//DTD SVG 1.1//EN" "http://www.w3.org/Graphics/SVG/1.1/DTD/svg11.dtd">
<svg width="100%" height="100%" viewBox="0 0 421 89" version="1.1" xmlns="http://www.w3.org/2000/svg" xmlns:xlink="http://www.w3.org/1999/xlink" xml:space="preserve" xmlns:serif="http://www.serif.com/" style="fill-rule:evenodd;clip-rule:evenodd;stroke-linejoin:round;stroke-miterlimit:2;">
    <g transform="matrix(1,0,0,1,-15773,-7385)">
        <g transform="matrix(1,0,0,1,12004.5,6770.4)">
            <g id="logo-ubc" transform="matrix(2.18179,0,0,2.18179,2995.63,-783.907)">
                <g transform="matrix(1,0,0,1,0,542.714)">
                    <path d="M369.173,113.436L370.75,124.872L375.93,116.214L373.731,125.737L379.318,120.393L376.408,127.448L381.056,123.98C378.893,129.867 377.008,133.167 369.173,135.85C361.337,133.167 359.453,129.867 357.289,123.98L361.936,127.448L359.027,120.393L364.614,125.737L362.414,116.214L367.596,124.872L369.173,113.436Z" style="fill:white;fill-rule:nonzero;"/>
                </g>
                <g transform="matrix(1,0,0,1,0,504.121)">
                    <path d="M360.965,148.197C358.591,148.197 357.173,146.926 357.173,144.792L357.173,139.682L359.142,139.682L359.142,144.711C359.142,145.952 359.794,146.634 360.98,146.634C362.197,146.634 362.842,145.98 362.842,144.747L362.842,139.682L364.824,139.682L364.824,144.758C364.824,146.88 363.345,148.197 360.965,148.197" style="fill:white;fill-rule:nonzero;"/>
                </g>
                <g transform="matrix(1,0,0,1,0,503.979)">
                    <path d="M369.246,148.197L366.497,148.197L366.497,139.823L369.287,139.823C371.326,139.823 372.45,140.615 372.45,142.047C372.45,142.801 372.057,143.381 371.307,143.736C372.312,144.091 372.823,144.756 372.823,145.716C372.823,147.317 371.554,148.197 369.246,148.197M368.399,146.798L369.246,146.798C370.012,146.798 370.921,146.603 370.921,145.67C370.921,144.708 369.996,144.503 369.218,144.503L368.399,144.503L368.399,146.798ZM368.399,143.187L369.114,143.187C370.072,143.187 370.602,142.828 370.602,142.177C370.602,141.536 370.14,141.223 369.192,141.223L368.399,141.223L368.399,143.187Z" style="fill:white;fill-rule:nonzero;"/>
                </g>
                <g transform="matrix(1,0,0,1,0,503.981)">
                    <path d="M378.337,148.337C375.627,148.337 373.876,146.645 373.876,144.02C373.876,141.426 375.691,139.682 378.39,139.682C379.391,139.682 380.234,139.879 380.966,140.285L381.03,140.321L380.736,142.026L380.606,141.94C379.888,141.457 379.204,141.234 378.457,141.234C376.847,141.234 375.884,142.272 375.884,144.01C375.884,145.715 376.88,146.774 378.484,146.774C379.243,146.774 379.991,146.545 380.77,146.077L380.898,146L381.175,147.59L381.114,147.626C380.315,148.084 379.329,148.337 378.337,148.337" style="fill:white;fill-rule:nonzero;"/>
                </g>
                <g transform="matrix(1,0,0,1,0,530.673)">
                    <path d="M369.173,149.664C359.922,147.043 355.508,140.936 355.508,132.23L355.508,111.621L382.837,111.621L382.837,132.23C382.837,140.936 378.422,147.043 369.173,149.664M354.388,110.501L354.388,132.37C354.388,141.561 359.388,148.215 369.173,150.825C378.956,148.215 383.958,141.561 383.958,132.37L383.958,110.501L354.388,110.501Z" style="fill:white;fill-rule:nonzero;"/>
                </g>
                <g transform="matrix(1,0,0,1,0,517.213)">
                    <path d="M369.173,137.93C371.234,137.93 371.514,138.767 373.174,138.756C374.828,138.767 375.112,137.93 377.174,137.93C379.235,137.93 379.519,138.767 381.174,138.756L381.174,136.836C379.519,136.847 379.235,136.021 377.174,136.021C375.112,136.021 374.828,136.847 373.174,136.836C371.514,136.847 371.234,136.021 369.173,136.021C367.111,136.021 366.832,136.847 365.172,136.836C363.518,136.847 363.234,136.021 361.172,136.021C359.111,136.021 358.826,136.847 357.172,136.836L357.172,138.756C358.826,138.767 359.111,137.93 361.172,137.93C363.234,137.93 363.518,138.767 365.172,138.756C366.832,138.767 367.111,137.93 369.173,137.93" style="fill:white;fill-rule:nonzero;"/>
                </g>
                <g transform="matrix(1,0,0,1,0,523.869)">
                    <path d="M370.479,134.743C371.474,134.981 371.947,135.435 373.174,135.428C374.828,135.438 375.112,134.602 377.173,134.602C379.235,134.602 379.519,135.438 381.174,135.428L381.174,133.508C379.519,133.519 379.235,132.693 377.173,132.693C375.112,132.693 374.828,133.519 373.174,133.508C371.841,133.516 371.397,132.986 370.208,132.777L370.479,134.743Z" style="fill:white;fill-rule:nonzero;"/>
                </g>
                <g transform="matrix(1,0,0,1,0,523.868)">
                    <path d="M365.172,135.428C366.398,135.436 366.871,134.982 367.865,134.743L368.137,132.777C366.948,132.987 366.504,133.517 365.172,133.508C363.518,133.519 363.234,132.693 361.172,132.693C359.11,132.693 358.826,133.519 357.172,133.508L357.172,135.428C358.826,135.438 359.11,134.602 361.172,134.602C363.234,134.602 363.518,135.438 365.172,135.428" style="fill:white;fill-rule:nonzero;"/>
                </g>
                <g transform="matrix(1,0,0,1,0,530.675)">
                    <path d="M370.957,131.405C371.519,131.598 371.952,131.834 372.62,131.918L373.772,129.993C373.592,130.017 373.395,130.031 373.174,130.03C372.033,130.037 371.544,129.65 370.682,129.407L370.957,131.405Z" style="fill:white;fill-rule:nonzero;"/>
                </g>
                <g transform="matrix(1,0,0,1,0,530.524)">
                    <path d="M376.235,131.343C376.505,131.3 376.811,131.274 377.173,131.274C379.235,131.274 379.519,132.111 381.174,132.1L381.174,130.18C379.519,130.191 379.235,129.365 377.173,129.365C376.999,129.365 376.838,129.372 376.688,129.383L376.235,131.343Z" style="fill:white;fill-rule:nonzero;"/>
                </g>
                <g transform="matrix(1,0,0,1,0,530.524)">
                    <path d="M362.11,131.343L361.657,129.383C361.507,129.372 361.346,129.365 361.172,129.365C359.111,129.365 358.826,130.191 357.172,130.18L357.172,132.1C358.826,132.111 359.111,131.274 361.172,131.274C361.534,131.274 361.84,131.3 362.11,131.343" style="fill:white;fill-rule:nonzero;"/>
                </g>
                <g transform="matrix(1,0,0,1,0,530.675)">
                    <path d="M365.725,131.918C366.393,131.834 366.825,131.598 367.388,131.405L367.663,129.407C366.801,129.65 366.312,130.037 365.172,130.029C364.95,130.031 364.753,130.017 364.573,129.992L365.725,131.918Z" style="fill:white;fill-rule:nonzero;"/>
                </g>
                <g transform="matrix(1,0,0,1,0,504.961)">
                    <path d="M401.84,147.215L400.393,147.215L400.393,141.113L398.12,141.113L398.12,139.823L404.029,139.823L404.223,141.113L401.84,141.113L401.84,147.215Z" style="fill:white;fill-rule:nonzero;"/>
                </g>
                <g transform="matrix(1,0,0,1,0,504.961)">
                    <path d="M413.023,147.215L411.575,147.215L411.575,144.028L408.392,144.028L408.392,147.215L406.96,147.215L406.96,139.823L408.392,139.823L408.392,142.71L411.575,142.71L411.575,139.823L413.023,139.823L413.023,147.215Z" style="fill:white;fill-rule:nonzero;"/>
                </g>
                <g transform="matrix(1,0,0,1,0,504.961)">
                    <path d="M421.9,147.215L417.149,147.215L417.149,139.823L421.8,139.823L421.8,141.1L418.583,141.1L418.583,142.736L421.144,142.736L421.354,144.013L418.583,144.013L418.583,145.938L421.9,145.938L421.9,147.215Z" style="fill:white;fill-rule:nonzero;"/>
                </g>
                <g transform="matrix(1,0,0,1,0,505.102)">
                    <path d="M433.041,147.216C431.152,147.216 430.025,146.083 430.025,144.184L430.025,139.682L431.457,139.682L431.457,144.127C431.457,145.315 432.024,145.969 433.054,145.969C434.11,145.969 434.667,145.344 434.667,144.157L434.667,139.682L436.114,139.682L436.114,144.127C436.114,146.063 434.965,147.216 433.041,147.216" style="fill:white;fill-rule:nonzero;"/>
                </g>
                <g transform="matrix(1,0,0,1,0,504.961)">
                    <path d="M446.091,147.215L444.848,147.215L441.332,142.034L441.332,147.215L440.013,147.215L440.013,139.823L441.415,139.823L444.771,144.785L444.771,139.823L446.091,139.823L446.091,147.215Z" style="fill:white;fill-rule:nonzero;"/>
                </g>
                <g transform="matrix(1,0,0,1,0,504.962)">
                    <rect x="450.199" y="139.823" width="1.448" height="7.392" style="fill:white;"/>
                </g>
                <g transform="matrix(1,0,0,1,0,504.935)">
                    <path d="M458.651,147.354L457.351,147.354L454.499,140.026L455.947,139.71L458.057,145.48L460.122,139.849L461.58,139.849L458.651,147.354Z" style="fill:white;fill-rule:nonzero;"/>
                </g>
                <g transform="matrix(1,0,0,1,0,504.961)">
                    <path d="M469.057,147.215L464.306,147.215L464.306,139.823L468.957,139.823L468.957,141.1L465.741,141.1L465.741,142.736L468.301,142.736L468.513,144.013L465.741,144.013L465.741,145.938L469.057,145.938L469.057,147.215Z" style="fill:white;fill-rule:nonzero;"/>
                </g>
                <g transform="matrix(1,0,0,1,0,505.055)">
                    <path d="M474.12,143.172L474.993,143.172C475.885,143.172 476.376,142.775 476.376,142.046C476.376,141.174 475.623,140.991 474.993,140.991L474.12,140.991L474.12,143.172ZM476.904,147.216L474.798,144.322L474.12,144.322L474.12,147.122L472.684,147.122L472.684,139.73L475.005,139.73C476.761,139.73 477.809,140.59 477.809,142.033C477.809,143.041 477.302,143.76 476.339,144.124L478.39,146.88L476.904,147.216Z" style="fill:white;fill-rule:nonzero;"/>
                </g>
                <g transform="matrix(1,0,0,1,0,504.958)">
                    <path d="M483.656,147.317C482.873,147.317 481.977,147.124 481.143,146.769L481.088,146.747L481.302,145.431L481.39,145.478C482.13,145.865 483.041,146.113 483.715,146.113C484.528,146.113 485.055,145.754 485.055,145.202C485.055,144.652 484.711,144.439 483.675,144.085C482.125,143.543 481.339,143.054 481.339,141.885C481.339,140.615 482.368,139.726 483.841,139.726C484.589,139.726 485.347,139.882 485.971,140.161L486.022,140.185L485.813,141.528L485.722,141.481C485.032,141.121 484.403,140.946 483.8,140.946C483.155,140.946 482.67,141.282 482.67,141.728C482.67,142.221 483.006,142.409 484.151,142.803C485.6,143.309 486.388,143.816 486.388,145.045C486.388,146.402 485.29,147.317 483.656,147.317" style="fill:white;fill-rule:nonzero;"/>
                </g>
                <g transform="matrix(1,0,0,1,0,504.962)">
                    <rect x="489.966" y="139.823" width="1.448" height="7.392" style="fill:white;"/>
                </g>
                <g transform="matrix(1,0,0,1,0,504.961)">
                    <path d="M497.923,147.215L496.478,147.215L496.478,141.113L494.207,141.113L494.207,139.823L500.115,139.823L500.308,141.113L497.923,141.113L497.923,147.215Z" style="fill:white;fill-rule:nonzero;"/>
                </g>
                <g transform="matrix(1,0,0,1,0,504.824)">
                    <path d="M505.656,147.352L504.209,147.352L504.209,144.498L501.565,140.138L503.034,139.823L504.952,143.186L506.811,139.96L508.399,139.96L505.656,144.483L505.656,147.352Z" style="fill:white;fill-rule:nonzero;"/>
                </g>
                <g transform="matrix(1,0,0,1,0,534.532)">
                    <path d="M401.68,126.142C400.426,126.142 399.58,127.181 399.58,128.726C399.58,130.24 400.463,131.339 401.68,131.339C402.926,131.339 403.765,130.295 403.765,128.741C403.765,127.236 402.888,126.142 401.68,126.142M401.68,132.571C399.909,132.571 398.119,131.256 398.119,128.741C398.119,126.216 399.909,124.897 401.68,124.897C403.442,124.897 405.224,126.21 405.224,128.726C405.224,131.25 403.442,132.571 401.68,132.571" style="fill:white;fill-rule:nonzero;"/>
                </g>
                <g transform="matrix(1,0,0,1,0,534.532)">
                    <path d="M409.981,132.43L408.551,132.43L408.551,125.038L413.084,125.038L413.084,126.315L409.981,126.315L409.981,128.066L412.416,128.066L412.626,129.342L409.981,129.342L409.981,132.43Z" style="fill:white;fill-rule:nonzero;"/>
                </g>
                <g transform="matrix(1,0,0,1,0,534.532)">
                    <path d="M422.284,127.982L423.225,127.982C424.05,127.982 424.464,127.675 424.464,127.07C424.464,126.722 424.34,126.258 423.267,126.258L422.284,126.258L422.284,127.982ZM422.284,131.226L423.353,131.226C424.313,131.226 424.779,130.899 424.779,130.226C424.779,129.518 424.306,129.156 423.368,129.156L422.284,129.156L422.284,131.226ZM423.34,132.431L420.907,132.431L420.907,125.038L423.325,125.038C424.882,125.038 425.81,125.755 425.81,126.955C425.81,127.663 425.503,128.186 424.891,128.513C425.72,128.814 426.143,129.39 426.143,130.226C426.143,131.646 425.145,132.431 423.34,132.431" style="fill:white;fill-rule:nonzero;"/>
                </g>
                <g transform="matrix(1,0,0,1,0,534.625)">
                    <path d="M431.074,128.386L431.944,128.386C432.834,128.386 433.326,127.989 433.326,127.261C433.326,126.388 432.575,126.206 431.944,126.206L431.074,126.206L431.074,128.386ZM433.852,132.431L431.747,129.536L431.074,129.536L431.074,132.337L429.639,132.337L429.639,124.945L431.958,124.945C433.713,124.945 434.759,125.805 434.759,127.248C434.759,128.256 434.251,128.975 433.291,129.339L435.341,132.094L433.852,132.431Z" style="fill:white;fill-rule:nonzero;"/>
                </g>
                <g transform="matrix(1,0,0,1,0,534.532)">
                    <rect x="438.506" y="125.038" width="1.45" height="7.392" style="fill:white;"/>
                </g>
                <g transform="matrix(1,0,0,1,0,534.532)">
                    <path d="M446.475,132.43L445.03,132.43L445.03,126.328L442.757,126.328L442.757,125.038L448.667,125.038L448.859,126.328L446.475,126.328L446.475,132.43Z" style="fill:white;fill-rule:nonzero;"/>
                </g>
                <g transform="matrix(1,0,0,1,0,534.532)">
                    <rect x="451.504" y="125.038" width="1.448" height="7.392" style="fill:white;"/>
                </g>
                <g transform="matrix(1,0,0,1,0,534.528)">
                    <path d="M458.921,132.531C458.136,132.531 457.243,132.338 456.406,131.983L456.352,131.961L456.563,130.645L456.652,130.692C457.396,131.079 458.309,131.327 458.977,131.327C459.791,131.327 460.319,130.968 460.319,130.416C460.319,129.866 459.974,129.653 458.938,129.299C457.391,128.757 456.601,128.268 456.601,127.099C456.601,125.829 457.634,124.94 459.108,124.94C459.854,124.94 460.609,125.096 461.235,125.375L461.287,125.399L461.078,126.742L460.988,126.695C460.298,126.335 459.667,126.16 459.063,126.16C458.421,126.16 457.935,126.496 457.935,126.942C457.935,127.435 458.269,127.623 459.416,128.017C460.864,128.523 461.65,129.03 461.65,130.259C461.65,131.616 460.554,132.531 458.921,132.531" style="fill:white;fill-rule:nonzero;"/>
                </g>
                <g transform="matrix(1,0,0,1,0,534.532)">
                    <path d="M470.862,132.43L469.414,132.43L469.414,129.243L466.233,129.243L466.233,132.43L464.8,132.43L464.8,125.038L466.233,125.038L466.233,127.925L469.414,127.925L469.414,125.038L470.862,125.038L470.862,132.43Z" style="fill:white;fill-rule:nonzero;"/>
                </g>
                <g transform="matrix(1,0,0,1,0,534.533)">
                    <path d="M481.963,132.571C479.835,132.571 478.403,131.038 478.403,128.754C478.403,126.446 479.835,124.897 481.963,124.897C482.807,124.897 483.485,125.075 484.09,125.463L484.13,125.49L483.903,126.842L483.805,126.77C483.22,126.331 482.652,126.126 482.007,126.126C480.676,126.126 479.88,127.107 479.88,128.741C479.88,130.352 480.703,131.352 482.035,131.352C482.673,131.352 483.337,131.125 483.95,130.695L484.046,130.627L484.244,131.891L484.203,131.915C483.562,132.337 482.768,132.571 481.963,132.571" style="fill:white;fill-rule:nonzero;"/>
                </g>
                <g transform="matrix(1,0,0,1,0,534.532)">
                    <path d="M490.459,126.142C489.203,126.142 488.359,127.181 488.359,128.726C488.359,130.24 489.242,131.339 490.459,131.339C491.703,131.339 492.542,130.295 492.542,128.741C492.542,127.236 491.666,126.142 490.459,126.142M490.459,132.571C488.687,132.571 486.899,131.256 486.899,128.741C486.899,126.216 488.687,124.897 490.459,124.897C492.218,124.897 494.003,126.21 494.003,128.726C494.003,131.25 492.218,132.571 490.459,132.571" style="fill:white;fill-rule:nonzero;"/>
                </g>
                <g transform="matrix(1,0,0,1,0,534.532)">
                    <path d="M501.542,132.43L497.169,132.43L497.169,125.038L498.602,125.038L498.602,131.166L501.337,131.166L501.542,132.43Z" style="fill:white;fill-rule:nonzero;"/>
                </g>
                <g transform="matrix(1,0,0,1,0,534.673)">
                    <path d="M507.106,132.431C505.218,132.431 504.09,131.298 504.09,129.399L504.09,124.897L505.524,124.897L505.524,129.342C505.524,130.53 506.089,131.184 507.122,131.184C508.175,131.184 508.73,130.559 508.73,129.371L508.73,124.897L510.181,124.897L510.181,129.342C510.181,131.278 509.031,132.431 507.106,132.431" style="fill:white;fill-rule:nonzero;"/>
                </g>
                <g transform="matrix(1,0,0,1,0,534.559)">
                    <path d="M518.759,132.43L517.373,132.43L515.401,126.825L514.991,132.403L513.674,132.403L514.256,125.011L516.205,125.011L518.14,130.673L520.101,125.011L522.008,125.011L522.59,132.403L521.157,132.403L520.735,126.825L518.759,132.43Z" style="fill:white;fill-rule:nonzero;"/>
                </g>
                <g transform="matrix(1,0,0,1,0,534.532)">
                    <path d="M527.838,127.982L528.779,127.982C529.601,127.982 530.017,127.675 530.017,127.07C530.017,126.722 529.896,126.258 528.821,126.258L527.838,126.258L527.838,127.982ZM527.838,131.226L528.904,131.226C529.866,131.226 530.334,130.899 530.334,130.226C530.334,129.518 529.858,129.156 528.92,129.156L527.838,129.156L527.838,131.226ZM528.892,132.431L526.461,132.431L526.461,125.038L528.877,125.038C530.438,125.038 531.368,125.755 531.368,126.955C531.368,127.663 531.056,128.186 530.446,128.513C531.272,128.814 531.695,129.39 531.695,130.226C531.695,131.646 530.701,132.431 528.892,132.431" style="fill:white;fill-rule:nonzero;"/>
                </g>
                <g transform="matrix(1,0,0,1,0,534.532)">
                    <rect x="535.322" y="125.038" width="1.449" height="7.392" style="fill:white;"/>
                </g>
                <g transform="matrix(1,0,0,1,0,534.585)">
                    <path d="M542.125,129.285L544.271,129.285C544.141,128.908 543.601,127.457 543.204,126.387L542.125,129.285ZM545.47,132.516L544.755,130.561L541.655,130.561L540.982,132.377L539.566,132.377L542.482,124.899L544.013,124.899L546.89,132.197L545.47,132.516Z" style="fill:white;fill-rule:nonzero;"/>
                </g>
            </g>
        </g>
    </g>
</svg>
