<?xml version="1.0" encoding="UTF-8" standalone="no"?>
<!DOCTYPE svg PUBLIC "-//W3C//DTD SVG 1.1//EN" "http://www.w3.org/Graphics/SVG/1.1/DTD/svg11.dtd">
<svg width="100%" height="100%" viewBox="0 0 418 108" version="1.1" xmlns="http://www.w3.org/2000/svg" xmlns:xlink="http://www.w3.org/1999/xlink" xml:space="preserve" xmlns:serif="http://www.serif.com/" style="fill-rule:evenodd;clip-rule:evenodd;stroke-linejoin:round;stroke-miterlimit:2;">
    <g transform="matrix(1,0,0,1,-8240,-5194)">
        <g transform="matrix(0.622121,0,0,0.417008,8066.43,2758.66)">
            <g id="gt" transform="matrix(1,0,0,1,-37.4125,1.81899e-12)">
                <g transform="matrix(2.16105,0,0,3.224,262.506,5764.12)">
                    <path d="M179.1,68.4L206.36,68.4C206.381,68.397 206.403,68.395 206.425,68.395C206.666,68.395 206.865,68.594 206.865,68.835C206.865,68.857 206.863,68.879 206.86,68.9L206.86,77C206.863,77.021 206.864,77.042 206.864,77.063C206.864,77.31 206.661,77.513 206.414,77.513C206.396,77.513 206.378,77.512 206.36,77.51L202,77.51C201.979,77.513 201.957,77.515 201.935,77.515C201.688,77.515 201.485,77.312 201.485,77.065C201.485,77.043 201.487,77.021 201.49,77L201.49,74C201.491,73.989 201.492,73.979 201.492,73.968C201.492,73.82 201.37,73.698 201.222,73.698C201.211,73.698 201.201,73.699 201.19,73.7L196,73.7C195.989,73.699 195.979,73.698 195.968,73.698C195.82,73.698 195.698,73.82 195.698,73.968C195.698,73.979 195.699,73.989 195.7,74L195.7,97.58C195.699,97.591 195.698,97.601 195.698,97.612C195.698,97.76 195.82,97.882 195.968,97.882C195.979,97.882 195.989,97.881 196,97.88L198.64,97.88C198.658,97.878 198.676,97.877 198.694,97.877C198.941,97.877 199.144,98.08 199.144,98.327C199.144,98.348 199.143,98.369 199.14,98.39L199.14,102.39C199.143,102.411 199.144,102.432 199.144,102.453C199.144,102.7 198.941,102.903 198.694,102.903C198.676,102.903 198.658,102.902 198.64,102.9L186.8,102.9C186.779,102.903 186.757,102.905 186.735,102.905C186.488,102.905 186.285,102.702 186.285,102.455C186.285,102.433 186.287,102.411 186.29,102.39L186.29,98.39C186.287,98.369 186.285,98.347 186.285,98.325C186.285,98.078 186.488,97.875 186.735,97.875C186.757,97.875 186.779,97.877 186.8,97.88L189.43,97.88C189.64,97.88 189.74,97.78 189.74,97.58L189.74,74C189.74,73.8 189.64,73.7 189.43,73.7L184.27,73.7C184.06,73.7 183.96,73.8 183.96,74L183.96,77C183.963,77.021 183.964,77.042 183.964,77.063C183.964,77.31 183.761,77.513 183.514,77.513C183.496,77.513 183.478,77.512 183.46,77.51L179.1,77.51C179.079,77.513 179.057,77.515 179.035,77.515C178.788,77.515 178.585,77.312 178.585,77.065C178.585,77.043 178.587,77.021 178.59,77L178.59,68.9C178.588,68.882 178.587,68.864 178.587,68.846C178.587,68.599 178.79,68.396 179.037,68.396C179.058,68.396 179.079,68.397 179.1,68.4Z" style="fill:white;fill-rule:nonzero;"/>
                </g>
                <g transform="matrix(2.16105,0,0,3.224,262.506,5764.12)">
                    <path d="M217.31,77.87C219.574,77.802 221.805,78.431 223.7,79.67C225.44,80.856 226.727,82.598 227.35,84.61C227.98,87.007 228.253,89.484 228.16,91.96C228.16,92.29 227.97,92.46 227.6,92.46L212.6,92.46C212.4,92.46 212.3,92.56 212.3,92.77C212.307,93.409 212.426,94.042 212.65,94.64C213.503,97.107 215.327,98.34 218.12,98.34C220.262,98.421 222.337,97.566 223.8,96C224.07,95.73 224.32,95.7 224.56,95.9L227.56,98.53C227.663,98.619 227.722,98.749 227.722,98.885C227.722,99.021 227.663,99.151 227.56,99.24C225.2,102.013 221.867,103.4 217.56,103.4C215.258,103.476 212.986,102.848 211.05,101.6C209.28,100.412 207.979,98.643 207.37,96.6C206.774,94.657 206.484,92.632 206.51,90.6C206.473,88.57 206.746,86.547 207.32,84.6C207.923,82.554 209.226,80.783 211,79.6C212.881,78.402 215.081,77.799 217.31,77.87ZM217.37,82.68C214.87,82.68 213.263,83.73 212.55,85.83C212.34,86.5 212.239,87.198 212.25,87.9C212.25,88.11 212.35,88.21 212.55,88.21L222.13,88.21C222.33,88.21 222.43,88.11 222.43,87.9C222.441,87.198 222.34,86.5 222.13,85.83C221.815,84.881 221.187,84.066 220.35,83.52C219.464,82.947 218.425,82.655 217.37,82.68Z" style="fill:white;fill-rule:nonzero;"/>
                </g>
                <g transform="matrix(2.16105,0,0,3.224,262.506,5764.12)">
                    <path d="M243,77.87C245.924,77.761 248.826,78.427 251.41,79.8C251.669,79.913 251.829,80.178 251.81,80.46L251.81,86C251.813,86.021 251.815,86.043 251.815,86.065C251.815,86.306 251.616,86.505 251.375,86.505C251.353,86.505 251.331,86.503 251.31,86.5L247,86.5C246.975,86.504 246.95,86.506 246.925,86.506C246.684,86.506 246.485,86.308 246.485,86.066C246.485,86.044 246.487,86.022 246.49,86L246.49,83.8C246.49,83.66 246.41,83.55 246.24,83.44C245.258,83.054 244.204,82.884 243.15,82.94C240.483,82.94 238.817,84.003 238.15,86.13C237.762,87.601 237.594,89.12 237.65,90.64C237.592,92.176 237.76,93.713 238.15,95.2C238.863,97.293 240.53,98.34 243.15,98.34C244.201,98.409 245.255,98.252 246.24,97.88C246.395,97.838 246.5,97.691 246.49,97.53L246.49,95.25C246.487,95.229 246.485,95.207 246.485,95.185C246.485,94.938 246.688,94.735 246.935,94.735C246.957,94.735 246.979,94.737 247,94.74L251.31,94.74C251.328,94.738 251.346,94.737 251.364,94.737C251.611,94.737 251.814,94.94 251.814,95.187C251.814,95.208 251.813,95.229 251.81,95.25L251.81,100.87C251.829,101.152 251.669,101.417 251.41,101.53C248.8,102.828 245.914,103.474 243,103.41C237.493,103.41 234.03,101.213 232.61,96.82C232.037,94.812 231.78,92.727 231.85,90.64C231.789,88.613 232.046,86.588 232.61,84.64C233.238,82.579 234.578,80.806 236.39,79.64C238.372,78.415 240.671,77.8 243,77.87Z" style="fill:white;fill-rule:nonzero;"/>
                </g>
                <g transform="matrix(2.16105,0,0,3.224,262.506,5764.12)">
                    <path d="M255.78,68.4L263.43,68.4C263.451,68.397 263.472,68.396 263.493,68.396C263.74,68.396 263.943,68.599 263.943,68.846C263.943,68.864 263.942,68.882 263.94,68.9L263.94,80.71L264,80.71C265.333,78.823 267.447,77.877 270.34,77.87C272.644,77.78 274.876,78.705 276.44,80.4C278.021,82.202 278.849,84.545 278.75,86.94L278.75,97.58C278.749,97.591 278.748,97.601 278.748,97.612C278.748,97.76 278.87,97.882 279.018,97.882C279.029,97.882 279.039,97.881 279.05,97.88L281.13,97.88C281.148,97.878 281.166,97.877 281.184,97.877C281.431,97.877 281.634,98.08 281.634,98.327C281.634,98.348 281.633,98.369 281.63,98.39L281.63,102.39C281.633,102.411 281.634,102.432 281.634,102.453C281.634,102.7 281.431,102.903 281.184,102.903C281.166,102.903 281.148,102.902 281.13,102.9L270.58,102.9C270.559,102.903 270.537,102.905 270.515,102.905C270.268,102.905 270.065,102.702 270.065,102.455C270.065,102.433 270.067,102.411 270.07,102.39L270.07,98.39C270.067,98.369 270.065,98.347 270.065,98.325C270.065,98.078 270.268,97.875 270.515,97.875C270.537,97.875 270.559,97.877 270.58,97.88L272.76,97.88C272.771,97.881 272.781,97.882 272.792,97.882C272.94,97.882 273.062,97.76 273.062,97.612C273.062,97.601 273.061,97.591 273.06,97.58L273.06,88.26C273.135,86.872 272.724,85.5 271.9,84.38C271.014,83.461 269.791,82.941 268.515,82.941C267.239,82.941 266.016,83.461 265.13,84.38C264.29,85.493 263.868,86.867 263.94,88.26L263.94,97.58C263.94,97.78 264.04,97.88 264.25,97.88L266.42,97.88C266.441,97.877 266.463,97.875 266.485,97.875C266.732,97.875 266.935,98.078 266.935,98.325C266.935,98.347 266.933,98.369 266.93,98.39L266.93,102.39C266.933,102.411 266.935,102.433 266.935,102.455C266.935,102.702 266.732,102.905 266.485,102.905C266.463,102.905 266.441,102.903 266.42,102.9L255.78,102.9C255.762,102.902 255.744,102.903 255.726,102.903C255.479,102.903 255.276,102.7 255.276,102.453C255.276,102.432 255.277,102.411 255.28,102.39L255.28,98.39C255.277,98.369 255.276,98.348 255.276,98.327C255.276,98.08 255.479,97.877 255.726,97.877C255.744,97.877 255.762,97.878 255.78,97.88L258,97.88C258.21,97.88 258.31,97.78 258.31,97.58L258.31,73.67C258.312,73.656 258.314,73.641 258.314,73.626C258.314,73.478 258.192,73.356 258.044,73.356C258.029,73.356 258.014,73.358 258,73.36L255.82,73.36C255.799,73.363 255.777,73.365 255.755,73.365C255.514,73.365 255.315,73.166 255.315,72.925C255.315,72.903 255.317,72.881 255.32,72.86L255.32,68.86C255.32,68.853 255.32,68.846 255.32,68.84C255.32,68.598 255.518,68.4 255.76,68.4C255.766,68.4 255.773,68.4 255.78,68.4Z" style="fill:white;fill-rule:nonzero;"/>
                </g>
                <g transform="matrix(2.16105,0,0,3.224,262.506,5764.12)">
                    <path d="M184.23,23.68C186.267,23.67 188.293,23.987 190.23,24.62C191.9,25.111 193.456,25.927 194.81,27.02C195.031,27.19 195.164,27.451 195.17,27.73L195.17,33.81C195.173,33.831 195.175,33.853 195.175,33.875C195.175,34.122 194.972,34.325 194.725,34.325C194.703,34.325 194.681,34.323 194.66,34.32L190.1,34.32C190.078,34.323 190.056,34.325 190.034,34.325C189.792,34.325 189.594,34.126 189.594,33.885C189.594,33.86 189.596,33.835 189.6,33.81L189.6,30.81C189.605,30.649 189.525,30.497 189.39,30.41C187.79,29.44 185.939,28.963 184.07,29.04C180.363,29.04 177.983,30.577 176.93,33.65C176.287,36.232 176.015,38.892 176.12,41.55C176.001,44.171 176.223,46.796 176.78,49.36C177.195,50.713 178.037,51.896 179.18,52.73C180.58,53.56 182.196,53.953 183.82,53.86C185.769,53.99 187.717,53.571 189.44,52.65C189.749,52.499 189.947,52.184 189.95,51.84L189.95,45.11C189.951,45.099 189.952,45.089 189.952,45.078C189.952,44.93 189.83,44.808 189.682,44.808C189.671,44.808 189.661,44.809 189.65,44.81L184.17,44.81C184.152,44.812 184.134,44.813 184.116,44.813C183.869,44.813 183.666,44.61 183.666,44.363C183.666,44.342 183.667,44.321 183.67,44.3L183.67,40.3C183.667,40.279 183.666,40.258 183.666,40.237C183.666,39.99 183.869,39.787 184.116,39.787C184.134,39.787 184.152,39.788 184.17,39.79L195.22,39.79C195.241,39.787 195.263,39.785 195.285,39.785C195.532,39.785 195.735,39.988 195.735,40.235C195.735,40.257 195.733,40.279 195.73,40.3L195.73,54.79C195.738,55.281 195.487,55.741 195.07,56C191.728,58.261 187.752,59.399 183.72,59.25C176.933,59.25 172.66,56.563 170.9,51.19C170.333,49.47 170.047,46.26 170.04,41.56C170.04,37.14 170.36,33.96 171.04,32.04C172.807,26.473 177.203,23.687 184.23,23.68Z" style="fill:white;fill-rule:nonzero;"/>
                </g>
                <g transform="matrix(2.16105,0,0,3.224,262.506,5764.12)">
                    <path d="M211,33.71C213.261,33.64 215.489,34.268 217.38,35.51C219.117,36.693 220.395,38.438 221,40.45C221.631,42.843 221.904,45.317 221.81,47.79C221.81,48.13 221.63,48.3 221.26,48.3L206.2,48.3C206.189,48.299 206.179,48.298 206.168,48.298C206.015,48.298 205.888,48.425 205.888,48.578C205.888,48.589 205.889,48.599 205.89,48.61C205.897,49.25 206.019,49.883 206.25,50.48C207.09,52.95 208.92,54.18 211.72,54.18C213.878,54.278 215.973,53.426 217.45,51.85C217.72,51.58 217.97,51.54 218.21,51.75L221.21,54.38C221.335,54.466 221.41,54.608 221.41,54.76C221.41,54.884 221.359,55.003 221.27,55.09C218.897,57.857 215.563,59.243 211.27,59.25C208.968,59.323 206.698,58.695 204.76,57.45C202.998,56.256 201.701,54.489 201.09,52.45C200.495,50.506 200.205,48.482 200.23,46.45C200.193,44.42 200.466,42.397 201.04,40.45C201.638,38.405 202.938,36.634 204.71,35.45C206.586,34.256 208.777,33.65 211,33.71ZM211,38.52C208.5,38.52 206.897,39.567 206.19,41.66C205.977,42.332 205.872,43.035 205.88,43.74C205.879,43.751 205.878,43.761 205.878,43.772C205.878,43.925 206.005,44.052 206.158,44.052C206.169,44.052 206.179,44.051 206.19,44.05L215.76,44.05C215.771,44.051 215.781,44.052 215.792,44.052C215.945,44.052 216.072,43.925 216.072,43.772C216.072,43.761 216.071,43.751 216.07,43.74C216.083,43.034 215.978,42.331 215.76,41.66C215.446,40.716 214.822,39.905 213.99,39.36C213.1,38.786 212.058,38.493 211,38.52Z" style="fill:white;fill-rule:nonzero;"/>
                </g>
                <g transform="matrix(2.16105,0,0,3.224,262.506,5764.12)">
                    <path d="M236.14,33.71C238.389,33.648 240.606,34.265 242.5,35.48C244.272,36.664 245.572,38.435 246.17,40.48C246.75,42.426 247.023,44.45 246.98,46.48C247.022,48.51 246.748,50.534 246.17,52.48C245.578,54.528 244.277,56.301 242.5,57.48C240.609,58.703 238.391,59.324 236.14,59.26C233.873,59.326 231.638,58.706 229.73,57.48C227.953,56.301 226.652,54.528 226.06,52.48C225.482,50.534 225.208,48.51 225.25,46.48C225.207,44.45 225.48,42.426 226.06,40.48C226.658,38.435 227.958,36.664 229.73,35.48C231.641,34.262 233.875,33.645 236.14,33.71ZM236.14,38.78C234.032,38.583 232.071,39.953 231.53,42C231.142,43.471 230.97,44.99 231.02,46.51C230.966,48.03 231.138,49.55 231.53,51.02C232.239,52.933 234.075,54.21 236.115,54.21C238.155,54.21 239.991,52.933 240.7,51.02C241.092,49.55 241.264,48.03 241.21,46.51C241.26,44.99 241.088,43.471 240.7,42C240.173,39.965 238.234,38.596 236.14,38.78Z" style="fill:white;fill-rule:nonzero;"/>
                </g>
                <g transform="matrix(2.16105,0,0,3.224,262.506,5764.12)">
                    <path d="M264.52,33.91C265.32,33.911 266.118,33.998 266.9,34.17C267.24,34.23 267.41,34.4 267.41,34.67L267.41,39.08C267.41,39.52 267.2,39.69 266.8,39.59C265.812,39.378 264.809,39.241 263.8,39.18C260.15,39.18 258.33,41.28 258.33,45.46L258.33,53.46C258.329,53.471 258.328,53.481 258.328,53.492C258.328,53.64 258.45,53.762 258.598,53.762C258.609,53.762 258.619,53.761 258.63,53.76L261,53.76C261.021,53.757 261.043,53.755 261.065,53.755C261.312,53.755 261.515,53.958 261.515,54.205C261.515,54.227 261.513,54.249 261.51,54.27L261.51,58.27C261.513,58.291 261.515,58.313 261.515,58.335C261.515,58.582 261.312,58.785 261.065,58.785C261.043,58.785 261.021,58.783 261,58.78L250.18,58.78C250.159,58.783 250.137,58.785 250.115,58.785C249.868,58.785 249.665,58.582 249.665,58.335C249.665,58.313 249.667,58.291 249.67,58.27L249.67,54.27C249.667,54.249 249.665,54.227 249.665,54.205C249.665,53.958 249.868,53.755 250.115,53.755C250.137,53.755 250.159,53.757 250.18,53.76L252.36,53.76C252.371,53.761 252.381,53.762 252.392,53.762C252.54,53.762 252.662,53.64 252.662,53.492C252.662,53.481 252.661,53.471 252.66,53.46L252.66,39.54C252.66,39.33 252.56,39.23 252.36,39.23L250.18,39.23C250.159,39.233 250.138,39.234 250.117,39.234C249.87,39.234 249.667,39.031 249.667,38.784C249.667,38.766 249.668,38.748 249.67,38.73L249.67,34.73C249.668,34.712 249.667,34.694 249.667,34.676C249.667,34.429 249.87,34.226 250.117,34.226C250.138,34.226 250.159,34.227 250.18,34.23L257.83,34.23C257.851,34.227 257.872,34.226 257.893,34.226C258.14,34.226 258.343,34.429 258.343,34.676C258.343,34.694 258.342,34.712 258.34,34.73L258.34,37.27L258.39,37.27C259.647,35.1 262.014,33.802 264.52,33.91Z" style="fill:white;fill-rule:nonzero;"/>
                </g>
                <g transform="matrix(2.16105,0,0,3.224,262.506,5764.12)">
                    <path d="M279.23,33.74C282.237,33.74 284.35,34.703 285.57,36.63L285.62,36.63L285.62,34.81C285.617,34.789 285.615,34.767 285.615,34.745C285.615,34.498 285.818,34.295 286.065,34.295C286.087,34.295 286.109,34.297 286.13,34.3L293.78,34.3C293.798,34.298 293.816,34.297 293.834,34.297C294.081,34.297 294.284,34.5 294.284,34.747C294.284,34.768 294.283,34.789 294.28,34.81L294.28,38.76C294.283,38.781 294.285,38.803 294.285,38.825C294.285,39.066 294.086,39.265 293.845,39.265C293.823,39.265 293.801,39.263 293.78,39.26L291.6,39.26C291.589,39.259 291.579,39.258 291.568,39.258C291.415,39.258 291.288,39.385 291.288,39.538C291.288,39.549 291.289,39.559 291.29,39.57L291.29,57.2C291.29,60.747 290.32,63.5 288.38,65.46C286.44,67.42 283.61,68.4 279.89,68.4C278.175,68.39 276.477,68.051 274.89,67.4C273.388,66.865 272.048,65.952 271,64.75C270.908,64.663 270.856,64.542 270.856,64.415C270.856,64.266 270.928,64.126 271.05,64.04L274.05,61.04C274.136,60.914 274.278,60.839 274.43,60.839C274.582,60.839 274.724,60.914 274.81,61.04C276.206,62.481 278.124,63.302 280.13,63.32C283.77,63.32 285.6,61.38 285.6,57.49L285.6,55.22L285.55,55.22C284.33,57.12 282.22,58.06 279.21,58.06C277.356,58.125 275.529,57.592 274,56.54C272.519,55.444 271.434,53.896 270.91,52.13C270.313,50.109 270.04,48.006 270.1,45.9C270.044,43.81 270.317,41.725 270.91,39.72C272.203,35.74 274.977,33.747 279.23,33.74ZM280.7,38.81C278.716,38.665 276.896,39.974 276.4,41.9C275.997,43.194 275.807,44.545 275.84,45.9C275.796,47.256 275.986,48.609 276.4,49.9C277.005,51.774 278.761,53.052 280.73,53.052C282.699,53.052 284.455,51.774 285.06,49.9C285.474,48.609 285.664,47.256 285.62,45.9C285.653,44.545 285.463,43.194 285.06,41.9C284.546,39.96 282.701,38.652 280.7,38.81Z" style="fill:white;fill-rule:nonzero;"/>
                </g>
                <g transform="matrix(2.16105,0,0,3.224,262.506,5764.12)">
                    <path d="M297.82,34.27L305.47,34.27C305.491,34.267 305.512,34.266 305.533,34.266C305.78,34.266 305.983,34.469 305.983,34.716C305.983,34.734 305.982,34.752 305.98,34.77L305.98,53.42C305.979,53.431 305.978,53.441 305.978,53.452C305.978,53.6 306.1,53.722 306.248,53.722C306.259,53.722 306.269,53.721 306.28,53.72L308.46,53.72C308.481,53.717 308.503,53.715 308.525,53.715C308.772,53.715 308.975,53.918 308.975,54.165C308.975,54.187 308.973,54.209 308.97,54.23L308.97,58.23C308.973,58.251 308.975,58.273 308.975,58.295C308.975,58.542 308.772,58.745 308.525,58.745C308.503,58.745 308.481,58.743 308.46,58.74L297.82,58.74C297.799,58.743 297.777,58.745 297.755,58.745C297.508,58.745 297.305,58.542 297.305,58.295C297.305,58.273 297.307,58.251 297.31,58.23L297.31,54.23C297.307,54.209 297.305,54.187 297.305,54.165C297.305,53.918 297.508,53.715 297.755,53.715C297.777,53.715 297.799,53.717 297.82,53.72L300,53.72C300.011,53.721 300.021,53.722 300.032,53.722C300.18,53.722 300.302,53.6 300.302,53.452C300.302,53.441 300.301,53.431 300.3,53.42L300.3,39.54C300.3,39.33 300.2,39.23 300,39.23L297.82,39.23C297.799,39.233 297.778,39.234 297.757,39.234C297.51,39.234 297.307,39.031 297.307,38.784C297.307,38.766 297.308,38.748 297.31,38.73L297.31,34.73C297.31,34.725 297.31,34.721 297.31,34.716C297.31,34.469 297.513,34.266 297.76,34.266C297.78,34.266 297.8,34.267 297.82,34.27ZM300.82,24.27L305.48,24.27C305.501,24.267 305.522,24.266 305.543,24.266C305.79,24.266 305.993,24.469 305.993,24.716C305.993,24.734 305.992,24.752 305.99,24.77L305.99,29.18C305.993,29.201 305.995,29.223 305.995,29.245C305.995,29.492 305.792,29.695 305.545,29.695C305.523,29.695 305.501,29.693 305.48,29.69L300.82,29.69C300.799,29.693 300.777,29.695 300.755,29.695C300.508,29.695 300.305,29.492 300.305,29.245C300.305,29.223 300.307,29.201 300.31,29.18L300.31,24.74C300.308,24.722 300.307,24.705 300.307,24.687C300.307,24.44 300.51,24.237 300.757,24.237C300.775,24.237 300.792,24.238 300.81,24.24L300.82,24.27Z" style="fill:white;fill-rule:nonzero;"/>
                </g>
                <g transform="matrix(2.16105,0,0,3.224,262.506,5764.12)">
                    <path d="M322.09,33.71C325.77,33.71 328.38,34.377 329.92,35.71C331.46,37.043 332.23,39.22 332.23,42.24L332.23,53.44C332.229,53.451 332.228,53.461 332.228,53.472C332.228,53.62 332.35,53.742 332.498,53.742C332.509,53.742 332.519,53.741 332.53,53.74L334.71,53.74C334.732,53.737 334.754,53.735 334.776,53.735C335.018,53.735 335.216,53.934 335.216,54.175C335.216,54.2 335.214,54.225 335.21,54.25L335.21,58.25C335.214,58.275 335.216,58.3 335.216,58.325C335.216,58.566 335.018,58.765 334.776,58.765C334.754,58.765 334.732,58.763 334.71,58.76L327.46,58.76C327.442,58.762 327.424,58.763 327.406,58.763C327.159,58.763 326.956,58.56 326.956,58.313C326.956,58.292 326.957,58.271 326.96,58.25L326.96,56.41C325.627,58.303 323.363,59.25 320.17,59.25C318.049,59.329 315.969,58.644 314.31,57.32C312.726,55.918 311.877,53.861 312.01,51.75C311.854,49.498 312.811,47.306 314.57,45.89C316.676,44.457 319.196,43.754 321.74,43.89L326.6,43.89C326.614,43.892 326.628,43.893 326.642,43.893C326.79,43.893 326.912,43.771 326.912,43.623C326.912,43.612 326.911,43.601 326.91,43.59L326.91,42.59C327.016,41.406 326.62,40.229 325.82,39.35C325.093,38.683 323.783,38.35 321.89,38.35C321.001,38.349 320.115,38.453 319.25,38.66C319.087,38.69 318.976,38.846 319,39.01L319,41.19C319.003,41.211 319.005,41.233 319.005,41.255C319.005,41.502 318.802,41.705 318.555,41.705C318.533,41.705 318.511,41.703 318.49,41.7L314,41.7C313.979,41.703 313.957,41.705 313.935,41.705C313.688,41.705 313.485,41.502 313.485,41.255C313.485,41.233 313.487,41.211 313.49,41.19L313.49,36.09C313.475,35.807 313.639,35.542 313.9,35.43C316.464,34.241 319.265,33.653 322.09,33.71ZM326.55,48.2L322.6,48.2C319.12,48.2 317.38,49.32 317.38,51.54C317.38,53.76 318.77,54.64 321.54,54.64C325.08,54.64 326.86,53.25 326.86,50.48L326.86,48.48C326.86,48.476 326.86,48.471 326.86,48.467C326.86,48.319 326.738,48.197 326.59,48.197C326.577,48.197 326.563,48.198 326.55,48.2Z" style="fill:white;fill-rule:nonzero;"/>
                </g>
                <g transform="matrix(2.16105,0,0,3.224,262.506,5764.12)">
                    <path d="M287.66,97.88C286.289,97.88 285.16,99.009 285.16,100.38C285.16,101.751 286.289,102.88 287.66,102.88C289.031,102.88 290.16,101.751 290.16,100.38C290.16,99.009 289.031,97.88 287.66,97.88ZM287.66,102.48C286.56,102.404 285.695,101.478 285.695,100.375C285.695,99.272 286.56,98.346 287.66,98.27C288.76,98.346 289.625,99.272 289.625,100.375C289.625,101.478 288.76,102.404 287.66,102.48Z" style="fill:white;fill-rule:nonzero;"/>
                </g>
                <g transform="matrix(2.16105,0,0,3.224,262.506,5764.12)">
                    <path d="M288.1,100.46C288.417,100.389 288.643,100.105 288.64,99.78C288.655,99.561 288.562,99.347 288.39,99.21C288.132,99.053 287.831,98.98 287.53,99C287.265,98.998 287.001,99.022 286.74,99.07L286.74,101.84L287.18,101.84L287.18,100.65L287.49,100.65C287.517,100.646 287.544,100.644 287.571,100.644C287.844,100.644 288.072,100.858 288.09,101.13C288.105,101.377 288.17,101.619 288.28,101.84L288.74,101.84C288.647,101.62 288.587,101.387 288.56,101.15C288.51,100.73 288.34,100.5 288.1,100.46ZM287.5,100.28L287.18,100.28L287.18,99.34L287.5,99.34C288,99.34 288.18,99.58 288.18,99.83C288.18,100.08 287.87,100.28 287.5,100.28Z" style="fill:white;fill-rule:nonzero;"/>
                </g>
                <g transform="matrix(2.16105,0,0,3.224,262.506,5764.12)">
                    <path d="M75.3,49L75.3,68.85L85.93,68.85L85.93,62.9L92.25,62.9C90.5,72 81.48,78.25 70.05,78.25C69.26,78.25 68.47,78.25 67.68,78.15C61.784,77.825 56.1,75.834 51.29,72.41C46.61,68.87 44.15,64.13 44.18,58.7C44.208,52.863 46.762,47.315 51.18,43.5C55.664,39.623 61.346,37.402 67.27,37.21L68.43,37.21C75.915,37.335 83.144,39.982 88.94,44.72C89.23,44.96 89.3,45.01 89.37,45.06C89.516,45.158 89.653,45.269 89.78,45.39L89.95,45.53L102.16,45.53L102.16,24.08L89.75,24.08L89.75,30.28C82.34,25.846 73.855,23.528 65.22,23.58L65.05,23.58C53.693,23.641 42.813,28.212 34.82,36.28C28.37,42.83 24.88,50.84 25,58.83C25.11,67.43 29.25,75.44 36.66,81.38C44.193,87.239 53.477,90.408 63.02,90.38C64.21,90.38 65.42,90.38 66.61,90.23C76.18,89.45 84.67,87.23 90.66,84.06L90.66,86.7L103.8,86.7L103.8,62.92L107.92,62.92L107.92,90.45L101.08,90.45L101.08,102.84L131.64,102.84L131.64,90.45L124.79,90.45L124.79,62.9L141.35,62.9L141.35,68.85L152,68.85L152,49L75.3,49Z" style="fill:white;fill-rule:nonzero;"/>
                </g>
                <g transform="matrix(2.16105,0,0,3.224,262.506,5764.12)">
                    <path d="M136.71,99.23C135.463,99.235 134.44,100.263 134.44,101.51C134.44,102.761 135.469,103.79 136.72,103.79C137.971,103.79 139,102.761 139,101.51L139,101.49C139,100.25 137.98,99.23 136.74,99.23C136.727,99.23 136.713,99.23 136.7,99.23L136.71,99.23ZM136.71,103.43C135.657,103.43 134.79,102.563 134.79,101.51C134.79,100.457 135.657,99.59 136.71,99.59C137.763,99.59 138.63,100.457 138.63,101.51C138.63,102.563 137.763,103.43 136.71,103.43Z" style="fill:white;fill-rule:nonzero;"/>
                </g>
                <g transform="matrix(2.16105,0,0,3.224,262.506,5764.12)">
                    <path d="M137.12,101.59C137.406,101.521 137.609,101.264 137.61,100.97C137.624,100.767 137.538,100.569 137.38,100.44C137.143,100.296 136.867,100.229 136.59,100.25C136.352,100.251 136.115,100.271 135.88,100.31L135.88,102.85L136.28,102.85L136.28,101.76L136.56,101.76C136.587,101.755 136.614,101.753 136.641,101.753C136.89,101.753 137.098,101.951 137.11,102.2C137.128,102.425 137.186,102.645 137.28,102.85L137.7,102.85C137.615,102.649 137.562,102.437 137.54,102.22C137.49,101.83 137.34,101.63 137.12,101.59ZM136.57,101.42L136.28,101.42L136.28,100.57L136.57,100.57C137.03,100.57 137.19,100.79 137.19,101.01C137.19,101.23 136.91,101.42 136.57,101.42Z" style="fill:white;fill-rule:nonzero;"/>
                </g>
            </g>
        </g>
    </g>
</svg>
