<?xml version="1.0" encoding="UTF-8" standalone="no"?>
<!DOCTYPE svg PUBLIC "-//W3C//DTD SVG 1.1//EN" "http://www.w3.org/Graphics/SVG/1.1/DTD/svg11.dtd">
<svg width="100%" height="100%" viewBox="0 0 189 89" version="1.1" xmlns="http://www.w3.org/2000/svg" xmlns:xlink="http://www.w3.org/1999/xlink" xml:space="preserve" xmlns:serif="http://www.serif.com/" style="fill-rule:evenodd;clip-rule:evenodd;stroke-linejoin:round;stroke-miterlimit:2;">
    <g transform="matrix(1,0,0,1,-16274,-7366)">
        <g transform="matrix(1,0,0,1,12004.5,6770.4)">
            <g id="logo-fujitsu" transform="matrix(0.37751,0,0,0.377376,4118.99,331.277)">
                <g id="g5598" transform="matrix(4.25245,0,0,-4.25245,426.906,839.407)">
                    <path id="path5600" d="M0,0L5.93,0C7.054,0 8.104,-0.821 8.161,-1.909L8.215,-1.909L8.215,2.562L0,2.562L-0.004,10.41L7.922,10.41C9.051,10.41 10.102,9.592 10.161,8.507L10.213,8.507L10.205,12.981L-6.428,12.974L-6.428,12.925C-5.308,12.864 -4.468,11.678 -4.468,10.57L-4.468,-9.989C-4.468,-11.093 -5.308,-12.284 -6.428,-12.347L-6.428,-12.395L1.964,-12.395L1.964,-12.347C0.843,-12.284 -0.004,-11.093 -0.004,-9.989L0,0Z" style="fill:white;fill-rule:nonzero;"/>
                </g>
                <g id="g5602" transform="matrix(4.25245,0,0,-4.25245,499.928,863.105)">
                    <path id="path5604" d="M0,0C0,-2.638 2.2,-4.919 4.915,-4.919C7.627,-4.919 9.835,-2.608 9.835,0.031L9.835,16.143C9.835,17.251 8.992,18.437 7.869,18.498L7.869,18.546L16.267,18.554L16.267,18.498C15.146,18.437 14.297,17.251 14.297,16.143L14.297,0.487C14.297,-4.552 10.119,-7.488 4.937,-7.488C-0.254,-7.488 -4.477,-4.552 -4.477,0.487L-4.466,16.143C-4.466,17.251 -5.313,18.437 -6.428,18.498L-6.428,18.554L1.958,18.554L1.958,18.498C0.84,18.431 -0.004,17.244 -0.004,16.143L0,0Z" style="fill:white;fill-rule:nonzero;"/>
                </g>
                <g id="g5606" transform="matrix(4.25245,0,0,-4.25245,791.72,801.679)">
                    <path id="path5608" d="M0,0C-1.407,2.267 -4.618,1.994 -4.618,1.994C-9.87,1.994 -9.622,-2.001 -9.622,-2.001C-9.622,-2.001 -9.983,-4.005 -7.344,-5.372L-2.093,-8.154C2.976,-10.866 2.375,-14.72 2.375,-14.72C2.375,-14.72 2.604,-21.92 -7.997,-21.92C-7.997,-21.92 -11.077,-22.014 -12.821,-21.362L-14.313,-16.699L-14.261,-16.699C-12.646,-19.021 -7.954,-19.356 -7.954,-19.356C-1.997,-19.095 -1.956,-15.059 -1.956,-15.059C-1.956,-15.059 -1.688,-13.321 -4.02,-12.062L-9.246,-9.281C-14.702,-6.374 -14.077,-2.459 -14.077,-2.459C-14.077,-2.459 -14.206,4.624 -4.827,4.624C-4.827,4.624 -0.617,4.516 0.054,3.861L0.054,0L0,0Z" style="fill:white;fill-rule:nonzero;"/>
                </g>
                <g id="g5610" transform="matrix(4.25245,0,0,-4.25245,617.714,746.69)">
                    <path id="path5612" d="M0,0C0.93,-0.91 2.228,-1.469 3.645,-1.469C6.5,-1.469 8.811,0.777 8.811,3.553C8.811,6.321 6.5,8.571 3.645,8.571C3.645,8.571 -0.332,8.938 -2.122,3.99L-2.116,7.704C-0.784,9.399 1.278,10.631 3.645,10.631C7.673,10.631 10.932,7.465 10.932,3.553C10.932,-0.353 7.673,-3.531 3.645,-3.531C1.633,-3.531 -0.187,-2.742 -1.502,-1.455L-4.008,1.284C-4.695,1.951 -5.64,2.357 -6.676,2.357C-8.763,2.357 -10.455,0.717 -10.455,-1.309C-10.455,-3.343 -8.763,-4.987 -6.676,-4.987C-6.676,-4.987 -3.885,-5.351 -2.122,-1.988L-2.116,-4.962C-3.196,-6.236 -4.845,-7.049 -6.676,-7.049C-9.934,-7.049 -12.58,-4.479 -12.58,-1.309C-12.58,1.855 -9.934,4.419 -6.676,4.419C-5.053,4.419 -3.579,3.785 -2.509,2.739L0,0Z" style="fill:white;fill-rule:nonzero;"/>
                </g>
                <g id="g5614" transform="matrix(4.25245,0,0,-4.25245,623.424,794.231)">
                    <path id="path5616" d="M0,0C0,1.109 -0.844,2.245 -1.963,2.302L-1.963,2.35L6.416,2.35L6.416,2.302C5.304,2.24 4.456,1.103 4.456,0L4.456,-20.603C4.456,-21.709 5.304,-22.899 6.416,-22.965L6.416,-23.012L-1.963,-23.012L-1.963,-22.965C-0.844,-22.899 0,-21.709 0,-20.603L0,0Z" style="fill:white;fill-rule:nonzero;"/>
                </g>
                <g id="g5618" transform="matrix(4.25245,0,0,-4.25245,601.049,794.459)">
                    <path id="path5620" d="M0,0C0,1.108 0.842,2.294 1.962,2.355L1.962,2.404L-6.43,2.404L-6.43,2.355C-5.307,2.294 -4.469,1.108 -4.469,0L-4.462,-25.757C-4.462,-25.757 -4.556,-30.305 -8.22,-32.922L-8.211,-32.972C-7.488,-32.854 0.006,-31.471 0.006,-24.232L0,0Z" style="fill:white;fill-rule:nonzero;"/>
                </g>
                <g id="g5622" transform="matrix(4.25245,0,0,-4.25245,650.575,803.645)">
                    <path id="path5624" d="M0,0L0.05,0C1.186,1.977 2.938,2 2.938,2L7.481,2L7.484,-18.399C7.484,-19.503 6.639,-20.685 5.52,-20.751L5.52,-20.798L13.923,-20.798L13.923,-20.751C12.795,-20.685 11.947,-19.495 11.947,-18.399L11.953,2L15.75,2.009C16.903,2.009 17.816,1.115 17.849,0L17.895,0L19.29,4.572L1.399,4.572L0,0Z" style="fill:white;fill-rule:nonzero;"/>
                </g>
                <g id="g5626" transform="matrix(4.25245,0,0,-4.25245,828.405,863.105)">
                    <path id="path5628" d="M0,0C0,-2.638 2.2,-4.919 4.916,-4.919C7.625,-4.919 9.835,-2.608 9.835,0.031L9.835,16.143C9.835,17.251 8.991,18.437 7.873,18.498L7.873,18.546L16.265,18.554L16.265,18.498C15.152,18.437 14.304,17.251 14.304,16.143L14.304,0.487C14.304,-4.552 10.124,-7.488 4.934,-7.488C-0.247,-7.488 -4.471,-4.552 -4.471,0.487L-4.465,16.143C-4.465,17.251 -5.31,18.437 -6.431,18.498L-6.431,18.554L1.963,18.554L1.963,18.498C0.839,18.431 -0.006,17.244 -0.006,16.143L0,0Z" style="fill:white;fill-rule:nonzero;"/>
                </g>
            </g>
        </g>
    </g>
</svg>
