<?xml version="1.0" encoding="UTF-8" standalone="no"?>
<!DOCTYPE svg PUBLIC "-//W3C//DTD SVG 1.1//EN" "http://www.w3.org/Graphics/SVG/1.1/DTD/svg11.dtd">
<svg width="100%" height="100%" viewBox="0 0 205 89" version="1.1" xmlns="http://www.w3.org/2000/svg" xmlns:xlink="http://www.w3.org/1999/xlink" xml:space="preserve" xmlns:serif="http://www.serif.com/" style="fill-rule:evenodd;clip-rule:evenodd;stroke-linejoin:round;stroke-miterlimit:2;">
    <g transform="matrix(1,0,0,1,-15488,-7383)">
        <g transform="matrix(1,0,0,1,12004.5,6770.4)">
            <g id="logo-duke" transform="matrix(1.28298,-3.91513e-20,3.91513e-20,-1.2833,3148,1036.67)">
                <path d="M365.85,330.14C365.635,330.14 365.421,330.087 365.206,329.984L359.742,327.904C359.155,327.689 358.728,327.517 358.461,327.384C358.195,327.25 358.063,327.05 358.063,326.784C358.063,326.41 358.261,326.168 358.661,326.062C359.06,325.956 359.516,325.81 360.022,325.623C360.529,325.436 360.983,325.115 361.383,324.662C361.784,324.208 361.983,323.448 361.983,322.381L361.983,282.201C361.983,281.348 361.889,280.707 361.702,280.28C361.516,279.854 361.235,279.532 360.862,279.318C360.488,279.106 360.06,278.946 359.581,278.84C359.101,278.734 358.595,278.6 358.062,278.438C357.636,278.333 357.29,278.212 357.022,278.08C356.755,277.946 356.622,277.693 356.622,277.318C356.622,276.946 356.875,276.72 357.381,276.64C357.888,276.562 358.275,276.519 358.542,276.519C359.236,276.519 360.132,276.571 361.225,276.673C362.321,276.775 363.352,276.827 364.32,276.827C365.232,276.827 366.116,276.775 366.972,276.673C367.83,276.571 368.739,276.519 369.7,276.519C370.127,276.519 370.54,276.574 370.941,276.679C371.34,276.786 371.541,276.997 371.541,277.316C371.541,277.69 371.313,277.915 370.861,277.994C370.408,278.074 369.859,278.222 369.22,278.437C368.845,278.541 368.459,278.767 368.058,279.112C367.659,279.459 367.461,280.083 367.461,280.988L367.461,292.321C367.461,292.586 367.647,292.721 368.02,292.721C368.18,292.721 368.421,292.561 368.742,292.242L380.822,280.83C381.408,280.244 381.7,279.817 381.7,279.553C381.7,279.286 381.554,279.046 381.261,278.834C380.966,278.621 380.609,278.488 380.18,278.437C379.487,278.329 378.927,278.208 378.5,278.076C378.074,277.942 377.863,277.691 377.863,277.317C377.863,276.944 378.047,276.72 378.422,276.64C378.795,276.562 379.408,276.52 380.261,276.52C381.22,276.52 382.18,276.571 383.141,276.673C384.1,276.775 385.115,276.828 386.182,276.828C387.409,276.828 388.528,276.775 389.542,276.673C390.555,276.571 391.489,276.52 392.342,276.52C393.729,276.52 394.422,276.786 394.422,277.319C394.422,277.585 394.25,277.799 393.903,277.959C393.555,278.118 393.089,278.317 392.503,278.558C391.916,278.798 391.235,279.105 390.461,279.478C389.687,279.853 388.902,280.41 388.102,281.156L374.261,293.712C374.153,293.817 374.019,293.964 373.861,294.151C373.7,294.338 373.62,294.564 373.62,294.831C373.62,295.044 374.314,295.617 375.7,296.55C377.086,297.483 378.674,298.481 380.461,299.548C382.248,300.614 383.98,301.613 385.661,302.546C387.341,303.479 388.474,304.078 389.062,304.346C389.327,304.452 389.687,304.573 390.142,304.706C390.595,304.838 391.035,304.985 391.464,305.145C391.889,305.304 392.247,305.478 392.542,305.665C392.835,305.852 392.981,306.052 392.981,306.265C392.981,306.691 392.823,306.959 392.503,307.065C392.182,307.171 391.836,307.226 391.464,307.226C390.662,307.226 389.715,307.199 388.622,307.148C387.528,307.097 386.472,307.07 385.461,307.07C384.392,307.07 383.312,307.097 382.22,307.148C381.127,307.199 380.154,307.226 379.3,307.226C379.033,307.226 378.781,307.144 378.541,306.985C378.301,306.824 378.181,306.639 378.181,306.425C378.181,306.104 378.339,305.85 378.661,305.662C378.98,305.476 379.327,305.29 379.701,305.104C380.075,304.917 380.42,304.676 380.742,304.382C381.06,304.088 381.22,303.674 381.22,303.142C381.22,302.874 380.913,302.488 380.3,301.981C379.687,301.475 378.928,300.9 378.02,300.261C377.115,299.619 376.114,298.952 375.02,298.257C373.926,297.563 372.9,296.937 371.94,296.376C370.98,295.815 370.14,295.362 369.42,295.015C368.7,294.668 368.287,294.495 368.18,294.495C367.701,294.495 367.461,294.922 367.461,295.776L367.461,328.698C367.461,329.285 367.368,329.672 367.178,329.858C366.992,330.046 366.79,330.14 366.575,330.14L365.85,330.14L365.85,330.14ZM284.978,326.281C282.413,326.281 280.13,326.205 278.128,326.051C276.124,325.896 274.135,325.818 272.159,325.818L264.876,325.818C264.608,325.818 264.303,325.806 263.955,325.779C263.608,325.753 263.276,325.698 262.956,325.618C262.636,325.537 262.356,325.402 262.117,325.217C261.875,325.03 261.756,324.777 261.756,324.457C261.756,324.03 261.928,323.775 262.275,323.695C262.622,323.616 263.249,323.523 264.156,323.417C264.688,323.363 265.261,323.322 265.875,323.295C266.489,323.269 267.076,323.214 267.636,323.135C268.195,323.055 268.661,322.922 269.034,322.734C269.408,322.548 269.595,322.269 269.595,321.895L269.595,284.256C269.595,283.082 269.489,282.175 269.275,281.535C269.062,280.893 268.783,280.402 268.436,280.054C268.089,279.707 267.702,279.465 267.276,279.332C266.849,279.198 266.422,279.104 265.995,279.051C264.768,278.838 263.969,278.571 263.595,278.251C263.221,277.932 263.036,277.61 263.036,277.29C263.036,276.878 263.221,276.647 263.595,276.596C263.969,276.545 264.261,276.52 264.475,276.52C265.435,276.52 266.581,276.571 267.914,276.673C269.248,276.776 270.503,276.828 271.678,276.828L290.586,276.828C294.004,276.828 297.222,277.402 300.241,278.548C303.26,279.695 305.89,281.254 308.133,283.229C310.375,285.203 312.15,287.524 313.459,290.192C314.768,292.858 315.424,295.686 315.424,298.673C315.424,303.475 314.622,307.623 313.02,311.118C311.417,314.611 309.24,317.478 306.489,319.719C303.738,321.959 300.52,323.613 296.836,324.68C293.149,325.747 289.198,326.28 284.978,326.28L284.978,326.281ZM283.206,323.89C284.865,323.89 286.632,323.69 288.506,323.29C290.379,322.89 292.227,322.262 294.047,321.409C295.867,320.555 297.62,319.489 299.306,318.209C300.991,316.929 302.479,315.406 303.764,313.646C305.05,311.885 306.065,309.885 306.814,307.645C307.564,305.405 307.939,302.923 307.939,300.204C307.939,297.482 307.564,295.067 306.814,292.96C306.065,290.854 305.076,289.012 303.845,287.438C302.613,285.864 301.222,284.519 299.669,283.398C298.116,282.277 296.564,281.384 295.011,280.717C293.459,280.05 291.959,279.557 290.514,279.237C289.068,278.915 287.81,278.756 286.74,278.756C285.454,278.756 284.198,278.915 282.967,279.237C281.734,279.557 280.637,280.05 279.673,280.717C278.709,281.384 277.933,282.223 277.345,283.237C276.757,284.25 276.462,285.452 276.462,286.84L276.462,321.329C276.462,321.595 276.502,321.889 276.583,322.209C276.663,322.528 276.916,322.808 277.345,323.049C277.773,323.289 278.443,323.49 279.353,323.651C280.262,323.81 281.546,323.89 283.206,323.89L283.206,323.89ZM408.456,308.537C405.952,308.537 403.793,308.002 401.983,306.934C400.172,305.866 398.666,304.517 397.467,302.887C396.268,301.257 395.378,299.441 394.792,297.437C394.206,295.434 393.912,293.499 393.912,291.629C393.912,286.606 395.117,282.641 397.528,279.729C399.938,276.818 403.358,275.362 407.786,275.362C409.866,275.362 411.639,275.67 413.106,276.285C414.572,276.9 415.784,277.599 416.745,278.375C417.705,279.151 418.399,279.874 418.825,280.54C419.254,281.207 419.467,281.62 419.467,281.781C419.467,282.207 419.224,282.42 418.745,282.42C418.425,282.42 418.131,282.246 417.866,281.898C417.598,281.552 417.224,281.18 416.745,280.779C416.265,280.378 415.599,280.02 414.745,279.699C413.89,279.378 412.692,279.22 411.145,279.22C408.691,279.22 406.703,279.605 405.183,280.382C403.663,281.157 402.491,282.162 401.664,283.392C400.837,284.62 400.277,286.037 399.984,287.642C399.69,289.245 399.545,290.901 399.545,292.614L399.545,294.298C399.545,294.778 399.595,295.153 399.698,295.421L419.164,295.421C419.857,295.421 420.296,295.541 420.482,295.781C420.667,296.021 420.761,296.513 420.761,297.26C420.761,298.112 420.548,299.18 420.121,300.459C419.695,301.739 419.003,302.979 418.044,304.178C417.085,305.378 415.819,306.404 414.247,307.257C412.675,308.111 410.747,308.537 408.457,308.537L408.456,308.537ZM319.533,307.226C318.946,307.226 318.467,307.198 318.094,307.145C317.72,307.091 317.533,306.879 317.533,306.504C317.533,306.237 317.692,306.036 318.013,305.904C318.333,305.77 318.974,305.571 319.933,305.304C320.413,305.197 320.921,305.063 321.453,304.904C321.986,304.744 322.253,304.369 322.253,303.782C322.253,302.607 322.24,301.287 322.214,299.82C322.188,298.353 322.177,296.844 322.177,295.296C322.177,293.8 322.163,292.308 322.138,290.814C322.112,289.318 322.1,287.958 322.1,286.731C322.1,285.022 322.245,283.472 322.539,282.085C322.833,280.698 323.339,279.498 324.06,278.482C324.781,277.468 325.767,276.698 327.02,276.164C328.274,275.631 329.836,275.362 331.703,275.362C333.305,275.362 334.732,275.612 335.986,276.11C337.24,276.608 338.333,277.163 339.267,277.776C340.2,278.389 340.962,278.937 341.548,279.417C342.135,279.896 342.588,280.137 342.909,280.137C343.283,280.137 343.469,279.817 343.469,279.178L343.469,277.337C343.469,276.963 343.494,276.658 343.547,276.417C343.598,276.176 343.779,276.057 344.089,276.057C344.466,276.057 345.462,276.214 347.078,276.529C348.694,276.845 350.914,277.214 353.742,277.635C354.328,277.742 354.743,277.846 354.983,277.953C355.221,278.057 355.344,278.268 355.344,278.584C355.344,279.005 355.035,279.241 354.422,279.293C353.808,279.347 352.728,279.374 351.181,279.374C350.808,279.374 350.367,279.478 349.861,279.693C349.353,279.906 349.102,280.44 349.102,281.295C349.102,285.35 349.152,289.39 349.256,293.418C349.358,297.447 349.411,301.489 349.411,305.545C349.411,306.291 349.197,306.757 348.766,306.945C348.339,307.132 347.991,307.226 347.724,307.226C346.919,307.226 346.13,307.199 345.352,307.148C344.576,307.097 343.785,307.071 342.984,307.071C342.29,307.071 341.61,307.097 340.944,307.148C340.276,307.199 339.597,307.226 338.905,307.226C338.478,307.226 338.077,307.184 337.703,307.104C337.33,307.024 337.144,306.852 337.144,306.585C337.144,306.265 337.45,305.999 338.064,305.785C338.677,305.572 339.144,305.411 339.464,305.304C340.424,305.037 341.171,304.837 341.703,304.704C342.236,304.57 342.65,304.451 342.944,304.345C343.237,304.239 343.425,304.105 343.505,303.943C343.584,303.784 343.625,303.597 343.625,303.384C343.625,300.504 343.598,297.65 343.547,294.824C343.494,291.996 343.469,289.143 343.469,286.26C343.469,285.461 343.375,284.632 343.189,283.779C343.004,282.925 342.591,282.166 341.952,281.499C341.314,280.833 340.367,280.287 339.116,279.86C337.865,279.432 336.121,279.218 333.886,279.218C331.916,279.218 330.371,279.66 329.253,280.54C328.134,281.42 327.577,282.686 327.577,284.34C327.577,287.914 327.602,291.474 327.655,295.021C327.705,298.569 327.73,302.129 327.73,305.705C327.73,306.29 327.664,306.689 327.53,306.903C327.395,307.117 327.059,307.225 326.522,307.225C325.932,307.225 325.341,307.198 324.75,307.147C324.16,307.096 323.569,307.071 322.978,307.071C322.388,307.071 321.812,307.096 321.253,307.147C320.694,307.198 320.119,307.225 319.533,307.225L319.533,307.226ZM409.594,306.609C411.301,306.609 412.714,306.142 413.835,305.209C414.954,304.276 415.514,303.118 415.514,301.731C415.514,300.984 415.422,300.372 415.233,299.892C415.047,299.412 414.661,299.013 414.075,298.693C413.488,298.373 412.66,298.145 411.594,298.012C410.527,297.878 409.113,297.812 407.353,297.812C405.646,297.812 404.326,297.827 403.393,297.853C402.46,297.879 401.766,297.919 401.313,297.973C400.86,298.025 400.591,298.093 400.511,298.173C400.433,298.252 400.393,298.372 400.393,298.532C400.393,299.171 400.606,299.944 401.033,300.851C401.459,301.757 402.058,302.637 402.833,303.49C403.607,304.342 404.567,305.075 405.714,305.689C406.86,306.301 408.154,306.609 409.594,306.609L409.594,306.609ZM368.586,270.55C366.982,270.55 365.714,269.629 365.714,268.123C365.714,266.567 366.596,266.108 368.438,265.561C369.893,265.125 370.403,264.789 370.403,264.117C370.403,263.27 369.819,262.848 368.6,262.848C367.779,262.848 366.92,263.246 366.335,263.881L365.403,262.973C366.135,262.114 367.231,261.567 368.5,261.567C370.727,261.567 371.72,262.637 371.72,264.204C371.72,265.759 370.652,266.307 368.933,266.829C367.429,267.276 367.031,267.576 367.031,268.186C367.031,268.77 367.467,269.268 368.488,269.268C369.346,269.268 369.967,268.994 370.514,268.434L371.436,269.368C370.665,270.114 369.767,270.55 368.586,270.55L368.586,270.55ZM267.386,270.414L267.386,265.361C267.386,262.961 268.506,261.567 270.658,261.567C272.823,261.567 274.005,262.897 274.005,265.336L274.005,270.414L272.697,270.414L272.697,265.311C272.697,263.719 272.051,262.875 270.683,262.875C269.376,262.875 268.692,263.757 268.692,265.4L268.692,270.414L267.386,270.414L267.386,270.414ZM302.569,270.414L302.569,261.705L303.875,261.705L303.875,270.414L302.569,270.414ZM382.442,270.414L382.442,261.705L383.748,261.705L383.748,270.414L382.442,270.414ZM410.42,270.414L413.544,265.15L413.544,261.705L414.851,261.705L414.851,265.15L417.972,270.414L416.467,270.414L415.098,268C414.788,267.439 414.352,266.605 414.203,266.283C414.053,266.605 413.606,267.476 413.307,268.011L411.951,270.414L410.42,270.414L410.42,270.414ZM284.92,270.412L284.92,261.704L286.187,261.704L286.187,266.22C286.187,266.705 286.176,267.912 286.176,268.235C286.312,268.011 286.612,267.488 286.823,267.165L290.294,261.704L291.539,261.704L291.539,270.412L290.269,270.412L290.269,265.921C290.269,265.435 290.283,264.192 290.283,263.868C290.158,264.092 289.785,264.739 289.561,265.099L286.251,270.412L284.92,270.412ZM314.368,270.412L317.39,261.704L318.771,261.704L321.757,270.412L320.365,270.412L318.573,264.876C318.411,264.366 318.161,263.583 318.087,263.27C318.012,263.583 317.763,264.354 317.602,264.864L315.785,270.412L314.368,270.412L314.368,270.412ZM332.182,270.412L332.182,261.704L337.981,261.704L337.981,262.973L333.49,262.973L333.49,265.721L335.99,265.721L335.99,266.99L333.49,266.99L333.49,269.143L337.793,269.143L337.793,270.412L332.182,270.412ZM348.543,270.412L348.543,261.704L349.824,261.704L349.824,265.149L351.79,265.149L353.518,261.704L355.026,261.704L353.246,265.262C354.428,265.561 355.162,266.419 355.162,267.812C355.162,269.605 353.881,270.412 352.363,270.412L348.543,270.412ZM394.24,270.412L394.24,269.131L396.778,269.131L396.778,261.704L398.084,261.704L398.084,269.131L400.621,269.131L400.621,270.412L394.24,270.412ZM349.824,269.181L352.363,269.181C353.246,269.181 353.843,268.683 353.843,267.775C353.843,266.829 353.234,266.381 352.363,266.381L349.824,266.381L349.824,269.181Z" style="fill:white;fill-rule:nonzero;"/>
            </g>
        </g>
    </g>
</svg>
