<?xml version="1.0" encoding="UTF-8" standalone="no"?>
<!DOCTYPE svg PUBLIC "-//W3C//DTD SVG 1.1//EN" "http://www.w3.org/Graphics/SVG/1.1/DTD/svg11.dtd">
<svg width="100%" height="100%" viewBox="0 0 346 346" version="1.1" xmlns="http://www.w3.org/2000/svg" xmlns:xlink="http://www.w3.org/1999/xlink" xml:space="preserve" xmlns:serif="http://www.serif.com/" style="fill-rule:evenodd;clip-rule:evenodd;stroke-linejoin:round;stroke-miterlimit:2;">
    <g transform="matrix(1,0,0,1,-5570,-6461)">
        <g transform="matrix(1.49616,0,0,1,-2856.48,922)">
            <g id="timbertrek-logo">
                <g transform="matrix(0.660497,0,0,0.988207,1497.7,1465.12)">
                    <circle cx="6434.56" cy="4297.56" r="174.558" style="fill:rgb(66,66,66);"/>
                    <path d="M6434.56,4123C6530.9,4123 6609.12,4201.22 6609.12,4297.56C6609.12,4393.9 6530.9,4472.12 6434.56,4472.12C6338.22,4472.12 6260,4393.9 6260,4297.56C6260,4201.22 6338.22,4123 6434.56,4123ZM6434.56,4131.31C6526.31,4131.31 6600.81,4205.81 6600.81,4297.56C6600.81,4389.31 6526.31,4463.81 6434.56,4463.81C6342.81,4463.81 6268.31,4389.31 6268.31,4297.56C6268.31,4205.81 6342.81,4131.31 6434.56,4131.31Z" style="fill:rgb(123,123,123);"/>
                </g>
                <g transform="matrix(0.628201,0,0,0.939888,2139.91,-523.818)">
                    <path d="M5691.27,6656.44L5660.64,6656.44L5742.98,6526.8L5823.36,6656.44L5792.72,6656.44L5820.76,6721.2L5742.66,6679.85L5663.24,6721.12L5691.27,6656.44ZM5742.89,6571.51L5742.89,6652.51L5790.28,6676.11L5742.89,6571.51Z" style="fill:white;"/>
                </g>
                <g>
                    <g transform="matrix(-0.445586,6.73401e-17,-1.13133e-16,-1.66667,8499.43,14925.7)">
                        <path d="M6183,5608C6183,5606.34 6179.64,5605 6175.5,5605C6171.36,5605 6168,5606.34 6168,5608L6168,5626C6168,5627.66 6171.36,5629 6175.5,5629C6179.64,5629 6183,5627.66 6183,5626L6183,5608Z" style="fill:white;"/>
                    </g>
                    <g transform="matrix(1.15018e-15,-0.666667,1.11396,4.44089e-15,-410.51,9829)">
                        <path d="M6183,5608C6183,5606.34 6179.64,5605 6175.5,5605C6171.36,5605 6168,5606.34 6168,5608L6168,5626C6168,5627.66 6171.36,5629 6175.5,5629C6179.64,5629 6183,5627.66 6183,5626L6183,5608Z" style="fill:white;"/>
                    </g>
                    <g transform="matrix(0.445586,3.52496e-15,-6.0106e-15,1.66667,2996,-3501.67)">
                        <path d="M6183,5608C6183,5606.34 6179.64,5605 6175.5,5605C6171.36,5605 6168,5606.34 6168,5608L6168,5626C6168,5627.66 6171.36,5629 6175.5,5629C6179.64,5629 6183,5627.66 6183,5626L6183,5608Z" style="fill:white;"/>
                    </g>
                    <g transform="matrix(-3.52474e-15,0.666667,-1.11396,-1.33227e-14,11905.9,1595)">
                        <path d="M6183,5608C6183,5606.34 6179.64,5605 6175.5,5605C6171.36,5605 6168,5606.34 6168,5608L6168,5626C6168,5627.66 6171.36,5629 6175.5,5629C6179.64,5629 6183,5627.66 6183,5626L6183,5608Z" style="fill:white;"/>
                    </g>
                </g>
                <g transform="matrix(0.668379,0,0,1,1554.3,-396)">
                    <g transform="matrix(-0.61592,-0.255122,0.637806,-1.5398,6551.69,16195.8)">
                        <path d="M6183,5608C6183,5606.34 6179.64,5605 6175.5,5605C6171.36,5605 6168,5606.34 6168,5608L6168,5626C6168,5627.66 6171.36,5629 6175.5,5629C6179.64,5629 6183,5627.66 6183,5626L6183,5608Z" style="fill:rgb(128,128,128);"/>
                    </g>
                    <g transform="matrix(-0.471405,-0.471405,1.17851,-1.17851,2670.11,15534.2)">
                        <path d="M6183,5608C6183,5606.34 6179.64,5605 6175.5,5605C6171.36,5605 6168,5606.34 6168,5608L6168,5626C6168,5627.66 6171.36,5629 6175.5,5629C6179.64,5629 6183,5627.66 6183,5626L6183,5608Z" style="fill:rgb(128,128,128);"/>
                    </g>
                    <g transform="matrix(-0.255122,-0.61592,1.5398,-0.637806,-662.81,13437.5)">
                        <path d="M6183,5608C6183,5606.34 6179.64,5605 6175.5,5605C6171.36,5605 6168,5606.34 6168,5608L6168,5626C6168,5627.66 6171.36,5629 6175.5,5629C6179.64,5629 6183,5627.66 6183,5626L6183,5608Z" style="fill:rgb(128,128,128);"/>
                    </g>
                    <g transform="matrix(0.255122,-0.61592,1.5398,0.637806,-3813.83,6385.69)">
                        <path d="M6183,5608C6183,5606.34 6179.64,5605 6175.5,5605C6171.36,5605 6168,5606.34 6168,5608L6168,5626C6168,5627.66 6171.36,5629 6175.5,5629C6179.64,5629 6183,5627.66 6183,5626L6183,5608Z" style="fill:rgb(128,128,128);"/>
                    </g>
                    <g transform="matrix(0.471405,-0.471405,1.17851,1.17851,-3152.2,2504.11)">
                        <path d="M6183,5608C6183,5606.34 6179.64,5605 6175.5,5605C6171.36,5605 6168,5606.34 6168,5608L6168,5626C6168,5627.66 6171.36,5629 6175.5,5629C6179.64,5629 6183,5627.66 6183,5626L6183,5608Z" style="fill:rgb(128,128,128);"/>
                    </g>
                    <g transform="matrix(0.61592,-0.255122,0.637806,1.5398,-1055.53,-828.81)">
                        <path d="M6183,5608C6183,5606.34 6179.64,5605 6175.5,5605C6171.36,5605 6168,5606.34 6168,5608L6168,5626C6168,5627.66 6171.36,5629 6175.5,5629C6179.64,5629 6183,5627.66 6183,5626L6183,5608Z" style="fill:rgb(128,128,128);"/>
                    </g>
                    <g transform="matrix(0.61592,0.255122,-0.637806,1.5398,5996.31,-3979.83)">
                        <path d="M6183,5608C6183,5606.34 6179.64,5605 6175.5,5605C6171.36,5605 6168,5606.34 6168,5608L6168,5626C6168,5627.66 6171.36,5629 6175.5,5629C6179.64,5629 6183,5627.66 6183,5626L6183,5608Z" style="fill:rgb(128,128,128);"/>
                    </g>
                    <g transform="matrix(0.471405,0.471405,-1.17851,1.17851,9877.89,-3318.2)">
                        <path d="M6183,5608C6183,5606.34 6179.64,5605 6175.5,5605C6171.36,5605 6168,5606.34 6168,5608L6168,5626C6168,5627.66 6171.36,5629 6175.5,5629C6179.64,5629 6183,5627.66 6183,5626L6183,5608Z" style="fill:rgb(128,128,128);"/>
                    </g>
                    <g transform="matrix(0.255122,0.61592,-1.5398,0.637806,13210.8,-1221.53)">
                        <path d="M6183,5608C6183,5606.34 6179.64,5605 6175.5,5605C6171.36,5605 6168,5606.34 6168,5608L6168,5626C6168,5627.66 6171.36,5629 6175.5,5629C6179.64,5629 6183,5627.66 6183,5626L6183,5608Z" style="fill:rgb(128,128,128);"/>
                    </g>
                    <g transform="matrix(-0.255122,0.61592,-1.5398,-0.637806,16361.8,5830.31)">
                        <path d="M6183,5608C6183,5606.34 6179.64,5605 6175.5,5605C6171.36,5605 6168,5606.34 6168,5608L6168,5626C6168,5627.66 6171.36,5629 6175.5,5629C6179.64,5629 6183,5627.66 6183,5626L6183,5608Z" style="fill:rgb(128,128,128);"/>
                    </g>
                    <g transform="matrix(-0.471405,0.471405,-1.17851,-1.17851,15700.2,9711.89)">
                        <path d="M6183,5608C6183,5606.34 6179.64,5605 6175.5,5605C6171.36,5605 6168,5606.34 6168,5608L6168,5626C6168,5627.66 6171.36,5629 6175.5,5629C6179.64,5629 6183,5627.66 6183,5626L6183,5608Z" style="fill:rgb(128,128,128);"/>
                    </g>
                    <g transform="matrix(-0.61592,0.255122,-0.637806,-1.5398,13603.5,13044.8)">
                        <path d="M6183,5608C6183,5606.34 6179.64,5605 6175.5,5605C6171.36,5605 6168,5606.34 6168,5608L6168,5626C6168,5627.66 6171.36,5629 6175.5,5629C6179.64,5629 6183,5627.66 6183,5626L6183,5608Z" style="fill:rgb(128,128,128);"/>
                    </g>
                </g>
                <g transform="matrix(0.660497,0,0,0.988207,1497.7,1465.12)">
                    <path d="M6434.56,4123C6530.9,4123 6609.12,4201.22 6609.12,4297.56C6609.12,4393.9 6530.9,4472.12 6434.56,4472.12C6338.22,4472.12 6260,4393.9 6260,4297.56C6260,4201.22 6338.22,4123 6434.56,4123ZM6434.56,4135.65C6523.92,4135.65 6596.47,4208.2 6596.47,4297.56C6596.47,4386.92 6523.92,4459.47 6434.56,4459.47C6345.2,4459.47 6272.65,4386.92 6272.65,4297.56C6272.65,4208.2 6345.2,4135.65 6434.56,4135.65Z" style="fill:rgb(128,128,128);"/>
                </g>
            </g>
        </g>
    </g>
</svg>
