<?xml version="1.0" encoding="UTF-8" standalone="no"?>
<!DOCTYPE svg PUBLIC "-//W3C//DTD SVG 1.1//EN" "http://www.w3.org/Graphics/SVG/1.1/DTD/svg11.dtd">
<svg width="100%" height="100%" viewBox="0 0 401 401" version="1.1" xmlns="http://www.w3.org/2000/svg" xmlns:xlink="http://www.w3.org/1999/xlink" xml:space="preserve" xmlns:serif="http://www.serif.com/" style="fill-rule:evenodd;clip-rule:evenodd;stroke-linecap:round;stroke-linejoin:round;stroke-miterlimit:1.5;">
    <g transform="matrix(1,0,0,1,-19411,-12326)">
        <g transform="matrix(2.82395,0,0,1,1793.2,6727.4)">
            <g id="timbertrek-logo-light" transform="matrix(0.614272,1.43604e-16,-7.51731e-17,1.15942,2779.06,-823.626)">
                <g transform="matrix(0.628201,0,0,0.939888,2139.91,-523.818)">
                    <path d="M5691.27,6656.44L5660.64,6656.44L5742.98,6526.8L5823.36,6656.44L5792.72,6656.44L5820.76,6721.2L5742.66,6679.85L5663.24,6721.12L5691.27,6656.44ZM5742.89,6571.51L5742.89,6652.51L5790.28,6676.11L5742.89,6571.51Z" style="fill:rgb(128,128,128);"/>
                </g>
                <g transform="matrix(0.950085,-2.46519e-32,-2.46519e-32,0.950085,286.898,285.116)">
                    <g transform="matrix(-0.445586,6.73401e-17,-1.13133e-16,-1.66667,8499.43,14925.7)">
                        <path d="M6183,5608C6183,5606.34 6179.64,5605 6175.5,5605C6171.36,5605 6168,5606.34 6168,5608L6168,5626C6168,5627.66 6171.36,5629 6175.5,5629C6179.64,5629 6183,5627.66 6183,5626L6183,5608Z" style="fill:rgb(128,128,128);stroke:rgb(128,128,128);stroke-width:2.98px;"/>
                    </g>
                    <g transform="matrix(1.15018e-15,-0.666667,1.11396,4.44089e-15,-410.51,9829)">
                        <path d="M6183,5608C6183,5606.34 6179.64,5605 6175.5,5605C6171.36,5605 6168,5606.34 6168,5608L6168,5626C6168,5627.66 6171.36,5629 6175.5,5629C6179.64,5629 6183,5627.66 6183,5626L6183,5608Z" style="fill:rgb(128,128,128);stroke:rgb(128,128,128);stroke-width:2.98px;"/>
                    </g>
                    <g transform="matrix(0.445586,3.52496e-15,-6.0106e-15,1.66667,2996,-3501.67)">
                        <path d="M6183,5608C6183,5606.34 6179.64,5605 6175.5,5605C6171.36,5605 6168,5606.34 6168,5608L6168,5626C6168,5627.66 6171.36,5629 6175.5,5629C6179.64,5629 6183,5627.66 6183,5626L6183,5608Z" style="fill:rgb(128,128,128);stroke:rgb(128,128,128);stroke-width:2.98px;"/>
                    </g>
                    <g transform="matrix(-3.52474e-15,0.666667,-1.11396,-1.33227e-14,11905.9,1595)">
                        <path d="M6183,5608C6183,5606.34 6179.64,5605 6175.5,5605C6171.36,5605 6168,5606.34 6168,5608L6168,5626C6168,5627.66 6171.36,5629 6175.5,5629C6179.64,5629 6183,5627.66 6183,5626L6183,5608Z" style="fill:rgb(128,128,128);stroke:rgb(128,128,128);stroke-width:2.98px;"/>
                    </g>
                </g>
                <g transform="matrix(0.634876,0,0,0.949874,1764.5,-89.8317)">
                    <g transform="matrix(-0.61592,-0.255122,0.637806,-1.5398,6551.69,16195.8)">
                        <path d="M6183,5608C6183,5606.34 6179.64,5605 6175.5,5605C6171.36,5605 6168,5606.34 6168,5608L6168,5626C6168,5627.66 6171.36,5629 6175.5,5629C6179.64,5629 6183,5627.66 6183,5626L6183,5608Z" style="fill:rgb(204,204,204);stroke:rgb(204,204,204);stroke-width:2.98px;"/>
                    </g>
                    <g transform="matrix(-0.471405,-0.471405,1.17851,-1.17851,2670.11,15534.2)">
                        <path d="M6183,5608C6183,5606.34 6179.64,5605 6175.5,5605C6171.36,5605 6168,5606.34 6168,5608L6168,5626C6168,5627.66 6171.36,5629 6175.5,5629C6179.64,5629 6183,5627.66 6183,5626L6183,5608Z" style="fill:rgb(204,204,204);stroke:rgb(204,204,204);stroke-width:2.98px;"/>
                    </g>
                    <g transform="matrix(-0.255122,-0.61592,1.5398,-0.637806,-662.81,13437.5)">
                        <path d="M6183,5608C6183,5606.34 6179.64,5605 6175.5,5605C6171.36,5605 6168,5606.34 6168,5608L6168,5626C6168,5627.66 6171.36,5629 6175.5,5629C6179.64,5629 6183,5627.66 6183,5626L6183,5608Z" style="fill:rgb(204,204,204);stroke:rgb(204,204,204);stroke-width:2.98px;"/>
                    </g>
                    <g transform="matrix(0.255122,-0.61592,1.5398,0.637806,-3813.83,6385.69)">
                        <path d="M6183,5608C6183,5606.34 6179.64,5605 6175.5,5605C6171.36,5605 6168,5606.34 6168,5608L6168,5626C6168,5627.66 6171.36,5629 6175.5,5629C6179.64,5629 6183,5627.66 6183,5626L6183,5608Z" style="fill:rgb(204,204,204);stroke:rgb(204,204,204);stroke-width:2.98px;"/>
                    </g>
                    <g transform="matrix(0.471405,-0.471405,1.17851,1.17851,-3152.2,2504.11)">
                        <path d="M6183,5608C6183,5606.34 6179.64,5605 6175.5,5605C6171.36,5605 6168,5606.34 6168,5608L6168,5626C6168,5627.66 6171.36,5629 6175.5,5629C6179.64,5629 6183,5627.66 6183,5626L6183,5608Z" style="fill:rgb(204,204,204);stroke:rgb(204,204,204);stroke-width:2.98px;"/>
                    </g>
                    <g transform="matrix(0.61592,-0.255122,0.637806,1.5398,-1055.53,-828.81)">
                        <path d="M6183,5608C6183,5606.34 6179.64,5605 6175.5,5605C6171.36,5605 6168,5606.34 6168,5608L6168,5626C6168,5627.66 6171.36,5629 6175.5,5629C6179.64,5629 6183,5627.66 6183,5626L6183,5608Z" style="fill:rgb(204,204,204);stroke:rgb(204,204,204);stroke-width:2.98px;"/>
                    </g>
                    <g transform="matrix(0.61592,0.255122,-0.637806,1.5398,5996.31,-3979.83)">
                        <path d="M6183,5608C6183,5606.34 6179.64,5605 6175.5,5605C6171.36,5605 6168,5606.34 6168,5608L6168,5626C6168,5627.66 6171.36,5629 6175.5,5629C6179.64,5629 6183,5627.66 6183,5626L6183,5608Z" style="fill:rgb(204,204,204);stroke:rgb(204,204,204);stroke-width:2.98px;"/>
                    </g>
                    <g transform="matrix(0.471405,0.471405,-1.17851,1.17851,9877.89,-3318.2)">
                        <path d="M6183,5608C6183,5606.34 6179.64,5605 6175.5,5605C6171.36,5605 6168,5606.34 6168,5608L6168,5626C6168,5627.66 6171.36,5629 6175.5,5629C6179.64,5629 6183,5627.66 6183,5626L6183,5608Z" style="fill:rgb(204,204,204);stroke:rgb(204,204,204);stroke-width:2.98px;"/>
                    </g>
                    <g transform="matrix(0.255122,0.61592,-1.5398,0.637806,13210.8,-1221.53)">
                        <path d="M6183,5608C6183,5606.34 6179.64,5605 6175.5,5605C6171.36,5605 6168,5606.34 6168,5608L6168,5626C6168,5627.66 6171.36,5629 6175.5,5629C6179.64,5629 6183,5627.66 6183,5626L6183,5608Z" style="fill:rgb(204,204,204);stroke:rgb(204,204,204);stroke-width:2.98px;"/>
                    </g>
                    <g transform="matrix(-0.255122,0.61592,-1.5398,-0.637806,16361.8,5830.31)">
                        <path d="M6183,5608C6183,5606.34 6179.64,5605 6175.5,5605C6171.36,5605 6168,5606.34 6168,5608L6168,5626C6168,5627.66 6171.36,5629 6175.5,5629C6179.64,5629 6183,5627.66 6183,5626L6183,5608Z" style="fill:rgb(204,204,204);stroke:rgb(204,204,204);stroke-width:2.98px;"/>
                    </g>
                    <g transform="matrix(-0.471405,0.471405,-1.17851,-1.17851,15700.2,9711.89)">
                        <path d="M6183,5608C6183,5606.34 6179.64,5605 6175.5,5605C6171.36,5605 6168,5606.34 6168,5608L6168,5626C6168,5627.66 6171.36,5629 6175.5,5629C6179.64,5629 6183,5627.66 6183,5626L6183,5608Z" style="fill:rgb(204,204,204);stroke:rgb(204,204,204);stroke-width:2.98px;"/>
                    </g>
                    <g transform="matrix(-0.61592,0.255122,-0.637806,-1.5398,13603.5,13044.8)">
                        <path d="M6183,5608C6183,5606.34 6179.64,5605 6175.5,5605C6171.36,5605 6168,5606.34 6168,5608L6168,5626C6168,5627.66 6171.36,5629 6175.5,5629C6179.64,5629 6183,5627.66 6183,5626L6183,5608Z" style="fill:rgb(204,204,204);stroke:rgb(204,204,204);stroke-width:2.98px;"/>
                    </g>
                </g>
                <g transform="matrix(0.660497,0,0,0.988207,1497.7,1465.12)">
                    <path d="M6434.56,4123C6530.9,4123 6609.12,4201.22 6609.12,4297.56C6609.12,4393.9 6530.9,4472.12 6434.56,4472.12C6338.22,4472.12 6260,4393.9 6260,4297.56C6260,4201.22 6338.22,4123 6434.56,4123ZM6434.56,4139.36C6521.87,4139.36 6592.75,4210.25 6592.75,4297.56C6592.75,4384.87 6521.87,4455.75 6434.56,4455.75C6347.25,4455.75 6276.36,4384.87 6276.36,4297.56C6276.36,4210.25 6347.25,4139.36 6434.56,4139.36Z" style="fill:rgb(128,128,128);"/>
                </g>
            </g>
        </g>
    </g>
</svg>
